<?xml version="1.0" encoding="utf-8" standalone="no"?>
<!DOCTYPE svg PUBLIC "-//W3C//DTD SVG 1.1//EN"
  "http://www.w3.org/Graphics/SVG/1.1/DTD/svg11.dtd">
<!-- Created with matplotlib (https://matplotlib.org/) -->
<svg height="348.166042pt" version="1.1" viewBox="0 0 1105.49125 348.166042" width="1105.49125pt" xmlns="http://www.w3.org/2000/svg" xmlns:xlink="http://www.w3.org/1999/xlink">
 <metadata>
  <rdf:RDF xmlns:cc="http://creativecommons.org/ns#" xmlns:dc="http://purl.org/dc/elements/1.1/" xmlns:rdf="http://www.w3.org/1999/02/22-rdf-syntax-ns#">
   <cc:Work>
    <dc:type rdf:resource="http://purl.org/dc/dcmitype/StillImage"/>
    <dc:date>2020-12-07T15:27:42.238614</dc:date>
    <dc:format>image/svg+xml</dc:format>
    <dc:creator>
     <cc:Agent>
      <dc:title>Matplotlib v3.3.3, https://matplotlib.org/</dc:title>
     </cc:Agent>
    </dc:creator>
   </cc:Work>
  </rdf:RDF>
 </metadata>
 <defs>
  <style type="text/css">*{stroke-linecap:butt;stroke-linejoin:round;}</style>
 </defs>
 <g id="figure_1">
  <g id="patch_1">
   <path d="M 0 348.166042 
L 1105.49125 348.166042 
L 1105.49125 0 
L 0 0 
z
" style="fill:#ffffff;"/>
  </g>
  <g id="axes_1">
   <g id="patch_2">
    <path d="M 55.345313 310.609792 
L 972.889063 310.609792 
L 972.889063 22.318125 
L 55.345313 22.318125 
z
" style="fill:#ffffff;"/>
   </g>
   <g id="matplotlib.axis_1">
    <g id="xtick_1">
     <g id="line2d_1">
      <path clip-path="url(#p452b5ac35a)" d="M 99.137173 310.609792 
L 99.137173 22.318125 
" style="fill:none;stroke:#b0b0b0;stroke-linecap:square;stroke-width:0.8;"/>
     </g>
     <g id="line2d_2">
      <defs>
       <path d="M 0 0 
L 0 3.5 
" id="m04af847fcf" style="stroke:#000000;stroke-width:0.8;"/>
      </defs>
      <g>
       <use style="stroke:#000000;stroke-width:0.8;" x="99.137173" xlink:href="#m04af847fcf" y="310.609792"/>
      </g>
     </g>
     <g id="text_1">
      <!-- 550 -->
      <g transform="translate(89.593423 325.208229)scale(0.1 -0.1)">
       <defs>
        <path d="M 10.796875 72.90625 
L 49.515625 72.90625 
L 49.515625 64.59375 
L 19.828125 64.59375 
L 19.828125 46.734375 
Q 21.96875 47.46875 24.109375 47.828125 
Q 26.265625 48.1875 28.421875 48.1875 
Q 40.625 48.1875 47.75 41.5 
Q 54.890625 34.8125 54.890625 23.390625 
Q 54.890625 11.625 47.5625 5.09375 
Q 40.234375 -1.421875 26.90625 -1.421875 
Q 22.3125 -1.421875 17.546875 -0.640625 
Q 12.796875 0.140625 7.71875 1.703125 
L 7.71875 11.625 
Q 12.109375 9.234375 16.796875 8.0625 
Q 21.484375 6.890625 26.703125 6.890625 
Q 35.15625 6.890625 40.078125 11.328125 
Q 45.015625 15.765625 45.015625 23.390625 
Q 45.015625 31 40.078125 35.4375 
Q 35.15625 39.890625 26.703125 39.890625 
Q 22.75 39.890625 18.8125 39.015625 
Q 14.890625 38.140625 10.796875 36.28125 
z
" id="DejaVuSans-53"/>
        <path d="M 31.78125 66.40625 
Q 24.171875 66.40625 20.328125 58.90625 
Q 16.5 51.421875 16.5 36.375 
Q 16.5 21.390625 20.328125 13.890625 
Q 24.171875 6.390625 31.78125 6.390625 
Q 39.453125 6.390625 43.28125 13.890625 
Q 47.125 21.390625 47.125 36.375 
Q 47.125 51.421875 43.28125 58.90625 
Q 39.453125 66.40625 31.78125 66.40625 
z
M 31.78125 74.21875 
Q 44.046875 74.21875 50.515625 64.515625 
Q 56.984375 54.828125 56.984375 36.375 
Q 56.984375 17.96875 50.515625 8.265625 
Q 44.046875 -1.421875 31.78125 -1.421875 
Q 19.53125 -1.421875 13.0625 8.265625 
Q 6.59375 17.96875 6.59375 36.375 
Q 6.59375 54.828125 13.0625 64.515625 
Q 19.53125 74.21875 31.78125 74.21875 
z
" id="DejaVuSans-48"/>
       </defs>
       <use xlink:href="#DejaVuSans-53"/>
       <use x="63.623047" xlink:href="#DejaVuSans-53"/>
       <use x="127.246094" xlink:href="#DejaVuSans-48"/>
      </g>
     </g>
    </g>
    <g id="xtick_2">
     <g id="line2d_3">
      <path clip-path="url(#p452b5ac35a)" d="M 203.403509 310.609792 
L 203.403509 22.318125 
" style="fill:none;stroke:#b0b0b0;stroke-linecap:square;stroke-width:0.8;"/>
     </g>
     <g id="line2d_4">
      <g>
       <use style="stroke:#000000;stroke-width:0.8;" x="203.403509" xlink:href="#m04af847fcf" y="310.609792"/>
      </g>
     </g>
     <g id="text_2">
      <!-- 600 -->
      <g transform="translate(193.859759 325.208229)scale(0.1 -0.1)">
       <defs>
        <path d="M 33.015625 40.375 
Q 26.375 40.375 22.484375 35.828125 
Q 18.609375 31.296875 18.609375 23.390625 
Q 18.609375 15.53125 22.484375 10.953125 
Q 26.375 6.390625 33.015625 6.390625 
Q 39.65625 6.390625 43.53125 10.953125 
Q 47.40625 15.53125 47.40625 23.390625 
Q 47.40625 31.296875 43.53125 35.828125 
Q 39.65625 40.375 33.015625 40.375 
z
M 52.59375 71.296875 
L 52.59375 62.3125 
Q 48.875 64.0625 45.09375 64.984375 
Q 41.3125 65.921875 37.59375 65.921875 
Q 27.828125 65.921875 22.671875 59.328125 
Q 17.53125 52.734375 16.796875 39.40625 
Q 19.671875 43.65625 24.015625 45.921875 
Q 28.375 48.1875 33.59375 48.1875 
Q 44.578125 48.1875 50.953125 41.515625 
Q 57.328125 34.859375 57.328125 23.390625 
Q 57.328125 12.15625 50.6875 5.359375 
Q 44.046875 -1.421875 33.015625 -1.421875 
Q 20.359375 -1.421875 13.671875 8.265625 
Q 6.984375 17.96875 6.984375 36.375 
Q 6.984375 53.65625 15.1875 63.9375 
Q 23.390625 74.21875 37.203125 74.21875 
Q 40.921875 74.21875 44.703125 73.484375 
Q 48.484375 72.75 52.59375 71.296875 
z
" id="DejaVuSans-54"/>
       </defs>
       <use xlink:href="#DejaVuSans-54"/>
       <use x="63.623047" xlink:href="#DejaVuSans-48"/>
       <use x="127.246094" xlink:href="#DejaVuSans-48"/>
      </g>
     </g>
    </g>
    <g id="xtick_3">
     <g id="line2d_5">
      <path clip-path="url(#p452b5ac35a)" d="M 307.669844 310.609792 
L 307.669844 22.318125 
" style="fill:none;stroke:#b0b0b0;stroke-linecap:square;stroke-width:0.8;"/>
     </g>
     <g id="line2d_6">
      <g>
       <use style="stroke:#000000;stroke-width:0.8;" x="307.669844" xlink:href="#m04af847fcf" y="310.609792"/>
      </g>
     </g>
     <g id="text_3">
      <!-- 650 -->
      <g transform="translate(298.126094 325.208229)scale(0.1 -0.1)">
       <use xlink:href="#DejaVuSans-54"/>
       <use x="63.623047" xlink:href="#DejaVuSans-53"/>
       <use x="127.246094" xlink:href="#DejaVuSans-48"/>
      </g>
     </g>
    </g>
    <g id="xtick_4">
     <g id="line2d_7">
      <path clip-path="url(#p452b5ac35a)" d="M 411.936179 310.609792 
L 411.936179 22.318125 
" style="fill:none;stroke:#b0b0b0;stroke-linecap:square;stroke-width:0.8;"/>
     </g>
     <g id="line2d_8">
      <g>
       <use style="stroke:#000000;stroke-width:0.8;" x="411.936179" xlink:href="#m04af847fcf" y="310.609792"/>
      </g>
     </g>
     <g id="text_4">
      <!-- 700 -->
      <g transform="translate(402.392429 325.208229)scale(0.1 -0.1)">
       <defs>
        <path d="M 8.203125 72.90625 
L 55.078125 72.90625 
L 55.078125 68.703125 
L 28.609375 0 
L 18.3125 0 
L 43.21875 64.59375 
L 8.203125 64.59375 
z
" id="DejaVuSans-55"/>
       </defs>
       <use xlink:href="#DejaVuSans-55"/>
       <use x="63.623047" xlink:href="#DejaVuSans-48"/>
       <use x="127.246094" xlink:href="#DejaVuSans-48"/>
      </g>
     </g>
    </g>
    <g id="xtick_5">
     <g id="line2d_9">
      <path clip-path="url(#p452b5ac35a)" d="M 516.202514 310.609792 
L 516.202514 22.318125 
" style="fill:none;stroke:#b0b0b0;stroke-linecap:square;stroke-width:0.8;"/>
     </g>
     <g id="line2d_10">
      <g>
       <use style="stroke:#000000;stroke-width:0.8;" x="516.202514" xlink:href="#m04af847fcf" y="310.609792"/>
      </g>
     </g>
     <g id="text_5">
      <!-- 750 -->
      <g transform="translate(506.658764 325.208229)scale(0.1 -0.1)">
       <use xlink:href="#DejaVuSans-55"/>
       <use x="63.623047" xlink:href="#DejaVuSans-53"/>
       <use x="127.246094" xlink:href="#DejaVuSans-48"/>
      </g>
     </g>
    </g>
    <g id="xtick_6">
     <g id="line2d_11">
      <path clip-path="url(#p452b5ac35a)" d="M 620.468849 310.609792 
L 620.468849 22.318125 
" style="fill:none;stroke:#b0b0b0;stroke-linecap:square;stroke-width:0.8;"/>
     </g>
     <g id="line2d_12">
      <g>
       <use style="stroke:#000000;stroke-width:0.8;" x="620.468849" xlink:href="#m04af847fcf" y="310.609792"/>
      </g>
     </g>
     <g id="text_6">
      <!-- 800 -->
      <g transform="translate(610.925099 325.208229)scale(0.1 -0.1)">
       <defs>
        <path d="M 31.78125 34.625 
Q 24.75 34.625 20.71875 30.859375 
Q 16.703125 27.09375 16.703125 20.515625 
Q 16.703125 13.921875 20.71875 10.15625 
Q 24.75 6.390625 31.78125 6.390625 
Q 38.8125 6.390625 42.859375 10.171875 
Q 46.921875 13.96875 46.921875 20.515625 
Q 46.921875 27.09375 42.890625 30.859375 
Q 38.875 34.625 31.78125 34.625 
z
M 21.921875 38.8125 
Q 15.578125 40.375 12.03125 44.71875 
Q 8.5 49.078125 8.5 55.328125 
Q 8.5 64.0625 14.71875 69.140625 
Q 20.953125 74.21875 31.78125 74.21875 
Q 42.671875 74.21875 48.875 69.140625 
Q 55.078125 64.0625 55.078125 55.328125 
Q 55.078125 49.078125 51.53125 44.71875 
Q 48 40.375 41.703125 38.8125 
Q 48.828125 37.15625 52.796875 32.3125 
Q 56.78125 27.484375 56.78125 20.515625 
Q 56.78125 9.90625 50.3125 4.234375 
Q 43.84375 -1.421875 31.78125 -1.421875 
Q 19.734375 -1.421875 13.25 4.234375 
Q 6.78125 9.90625 6.78125 20.515625 
Q 6.78125 27.484375 10.78125 32.3125 
Q 14.796875 37.15625 21.921875 38.8125 
z
M 18.3125 54.390625 
Q 18.3125 48.734375 21.84375 45.5625 
Q 25.390625 42.390625 31.78125 42.390625 
Q 38.140625 42.390625 41.71875 45.5625 
Q 45.3125 48.734375 45.3125 54.390625 
Q 45.3125 60.0625 41.71875 63.234375 
Q 38.140625 66.40625 31.78125 66.40625 
Q 25.390625 66.40625 21.84375 63.234375 
Q 18.3125 60.0625 18.3125 54.390625 
z
" id="DejaVuSans-56"/>
       </defs>
       <use xlink:href="#DejaVuSans-56"/>
       <use x="63.623047" xlink:href="#DejaVuSans-48"/>
       <use x="127.246094" xlink:href="#DejaVuSans-48"/>
      </g>
     </g>
    </g>
    <g id="xtick_7">
     <g id="line2d_13">
      <path clip-path="url(#p452b5ac35a)" d="M 724.735185 310.609792 
L 724.735185 22.318125 
" style="fill:none;stroke:#b0b0b0;stroke-linecap:square;stroke-width:0.8;"/>
     </g>
     <g id="line2d_14">
      <g>
       <use style="stroke:#000000;stroke-width:0.8;" x="724.735185" xlink:href="#m04af847fcf" y="310.609792"/>
      </g>
     </g>
     <g id="text_7">
      <!-- 850 -->
      <g transform="translate(715.191435 325.208229)scale(0.1 -0.1)">
       <use xlink:href="#DejaVuSans-56"/>
       <use x="63.623047" xlink:href="#DejaVuSans-53"/>
       <use x="127.246094" xlink:href="#DejaVuSans-48"/>
      </g>
     </g>
    </g>
    <g id="xtick_8">
     <g id="line2d_15">
      <path clip-path="url(#p452b5ac35a)" d="M 829.00152 310.609792 
L 829.00152 22.318125 
" style="fill:none;stroke:#b0b0b0;stroke-linecap:square;stroke-width:0.8;"/>
     </g>
     <g id="line2d_16">
      <g>
       <use style="stroke:#000000;stroke-width:0.8;" x="829.00152" xlink:href="#m04af847fcf" y="310.609792"/>
      </g>
     </g>
     <g id="text_8">
      <!-- 900 -->
      <g transform="translate(819.45777 325.208229)scale(0.1 -0.1)">
       <defs>
        <path d="M 10.984375 1.515625 
L 10.984375 10.5 
Q 14.703125 8.734375 18.5 7.8125 
Q 22.3125 6.890625 25.984375 6.890625 
Q 35.75 6.890625 40.890625 13.453125 
Q 46.046875 20.015625 46.78125 33.40625 
Q 43.953125 29.203125 39.59375 26.953125 
Q 35.25 24.703125 29.984375 24.703125 
Q 19.046875 24.703125 12.671875 31.3125 
Q 6.296875 37.9375 6.296875 49.421875 
Q 6.296875 60.640625 12.9375 67.421875 
Q 19.578125 74.21875 30.609375 74.21875 
Q 43.265625 74.21875 49.921875 64.515625 
Q 56.59375 54.828125 56.59375 36.375 
Q 56.59375 19.140625 48.40625 8.859375 
Q 40.234375 -1.421875 26.421875 -1.421875 
Q 22.703125 -1.421875 18.890625 -0.6875 
Q 15.09375 0.046875 10.984375 1.515625 
z
M 30.609375 32.421875 
Q 37.25 32.421875 41.125 36.953125 
Q 45.015625 41.5 45.015625 49.421875 
Q 45.015625 57.28125 41.125 61.84375 
Q 37.25 66.40625 30.609375 66.40625 
Q 23.96875 66.40625 20.09375 61.84375 
Q 16.21875 57.28125 16.21875 49.421875 
Q 16.21875 41.5 20.09375 36.953125 
Q 23.96875 32.421875 30.609375 32.421875 
z
" id="DejaVuSans-57"/>
       </defs>
       <use xlink:href="#DejaVuSans-57"/>
       <use x="63.623047" xlink:href="#DejaVuSans-48"/>
       <use x="127.246094" xlink:href="#DejaVuSans-48"/>
      </g>
     </g>
    </g>
    <g id="xtick_9">
     <g id="line2d_17">
      <path clip-path="url(#p452b5ac35a)" d="M 933.267855 310.609792 
L 933.267855 22.318125 
" style="fill:none;stroke:#b0b0b0;stroke-linecap:square;stroke-width:0.8;"/>
     </g>
     <g id="line2d_18">
      <g>
       <use style="stroke:#000000;stroke-width:0.8;" x="933.267855" xlink:href="#m04af847fcf" y="310.609792"/>
      </g>
     </g>
     <g id="text_9">
      <!-- 950 -->
      <g transform="translate(923.724105 325.208229)scale(0.1 -0.1)">
       <use xlink:href="#DejaVuSans-57"/>
       <use x="63.623047" xlink:href="#DejaVuSans-53"/>
       <use x="127.246094" xlink:href="#DejaVuSans-48"/>
      </g>
     </g>
    </g>
    <g id="text_10">
     <!-- Message Count [int] -->
     <g transform="translate(463.75625 338.886354)scale(0.1 -0.1)">
      <defs>
       <path d="M 9.8125 72.90625 
L 24.515625 72.90625 
L 43.109375 23.296875 
L 61.8125 72.90625 
L 76.515625 72.90625 
L 76.515625 0 
L 66.890625 0 
L 66.890625 64.015625 
L 48.09375 14.015625 
L 38.1875 14.015625 
L 19.390625 64.015625 
L 19.390625 0 
L 9.8125 0 
z
" id="DejaVuSans-77"/>
       <path d="M 56.203125 29.59375 
L 56.203125 25.203125 
L 14.890625 25.203125 
Q 15.484375 15.921875 20.484375 11.0625 
Q 25.484375 6.203125 34.421875 6.203125 
Q 39.59375 6.203125 44.453125 7.46875 
Q 49.3125 8.734375 54.109375 11.28125 
L 54.109375 2.78125 
Q 49.265625 0.734375 44.1875 -0.34375 
Q 39.109375 -1.421875 33.890625 -1.421875 
Q 20.796875 -1.421875 13.15625 6.1875 
Q 5.515625 13.8125 5.515625 26.8125 
Q 5.515625 40.234375 12.765625 48.109375 
Q 20.015625 56 32.328125 56 
Q 43.359375 56 49.78125 48.890625 
Q 56.203125 41.796875 56.203125 29.59375 
z
M 47.21875 32.234375 
Q 47.125 39.59375 43.09375 43.984375 
Q 39.0625 48.390625 32.421875 48.390625 
Q 24.90625 48.390625 20.390625 44.140625 
Q 15.875 39.890625 15.1875 32.171875 
z
" id="DejaVuSans-101"/>
       <path d="M 44.28125 53.078125 
L 44.28125 44.578125 
Q 40.484375 46.53125 36.375 47.5 
Q 32.28125 48.484375 27.875 48.484375 
Q 21.1875 48.484375 17.84375 46.4375 
Q 14.5 44.390625 14.5 40.28125 
Q 14.5 37.15625 16.890625 35.375 
Q 19.28125 33.59375 26.515625 31.984375 
L 29.59375 31.296875 
Q 39.15625 29.25 43.1875 25.515625 
Q 47.21875 21.78125 47.21875 15.09375 
Q 47.21875 7.46875 41.1875 3.015625 
Q 35.15625 -1.421875 24.609375 -1.421875 
Q 20.21875 -1.421875 15.453125 -0.5625 
Q 10.6875 0.296875 5.421875 2 
L 5.421875 11.28125 
Q 10.40625 8.6875 15.234375 7.390625 
Q 20.0625 6.109375 24.8125 6.109375 
Q 31.15625 6.109375 34.5625 8.28125 
Q 37.984375 10.453125 37.984375 14.40625 
Q 37.984375 18.0625 35.515625 20.015625 
Q 33.0625 21.96875 24.703125 23.78125 
L 21.578125 24.515625 
Q 13.234375 26.265625 9.515625 29.90625 
Q 5.8125 33.546875 5.8125 39.890625 
Q 5.8125 47.609375 11.28125 51.796875 
Q 16.75 56 26.8125 56 
Q 31.78125 56 36.171875 55.265625 
Q 40.578125 54.546875 44.28125 53.078125 
z
" id="DejaVuSans-115"/>
       <path d="M 34.28125 27.484375 
Q 23.390625 27.484375 19.1875 25 
Q 14.984375 22.515625 14.984375 16.5 
Q 14.984375 11.71875 18.140625 8.90625 
Q 21.296875 6.109375 26.703125 6.109375 
Q 34.1875 6.109375 38.703125 11.40625 
Q 43.21875 16.703125 43.21875 25.484375 
L 43.21875 27.484375 
z
M 52.203125 31.203125 
L 52.203125 0 
L 43.21875 0 
L 43.21875 8.296875 
Q 40.140625 3.328125 35.546875 0.953125 
Q 30.953125 -1.421875 24.3125 -1.421875 
Q 15.921875 -1.421875 10.953125 3.296875 
Q 6 8.015625 6 15.921875 
Q 6 25.140625 12.171875 29.828125 
Q 18.359375 34.515625 30.609375 34.515625 
L 43.21875 34.515625 
L 43.21875 35.40625 
Q 43.21875 41.609375 39.140625 45 
Q 35.0625 48.390625 27.6875 48.390625 
Q 23 48.390625 18.546875 47.265625 
Q 14.109375 46.140625 10.015625 43.890625 
L 10.015625 52.203125 
Q 14.9375 54.109375 19.578125 55.046875 
Q 24.21875 56 28.609375 56 
Q 40.484375 56 46.34375 49.84375 
Q 52.203125 43.703125 52.203125 31.203125 
z
" id="DejaVuSans-97"/>
       <path d="M 45.40625 27.984375 
Q 45.40625 37.75 41.375 43.109375 
Q 37.359375 48.484375 30.078125 48.484375 
Q 22.859375 48.484375 18.828125 43.109375 
Q 14.796875 37.75 14.796875 27.984375 
Q 14.796875 18.265625 18.828125 12.890625 
Q 22.859375 7.515625 30.078125 7.515625 
Q 37.359375 7.515625 41.375 12.890625 
Q 45.40625 18.265625 45.40625 27.984375 
z
M 54.390625 6.78125 
Q 54.390625 -7.171875 48.1875 -13.984375 
Q 42 -20.796875 29.203125 -20.796875 
Q 24.46875 -20.796875 20.265625 -20.09375 
Q 16.0625 -19.390625 12.109375 -17.921875 
L 12.109375 -9.1875 
Q 16.0625 -11.328125 19.921875 -12.34375 
Q 23.78125 -13.375 27.78125 -13.375 
Q 36.625 -13.375 41.015625 -8.765625 
Q 45.40625 -4.15625 45.40625 5.171875 
L 45.40625 9.625 
Q 42.625 4.78125 38.28125 2.390625 
Q 33.9375 0 27.875 0 
Q 17.828125 0 11.671875 7.65625 
Q 5.515625 15.328125 5.515625 27.984375 
Q 5.515625 40.671875 11.671875 48.328125 
Q 17.828125 56 27.875 56 
Q 33.9375 56 38.28125 53.609375 
Q 42.625 51.21875 45.40625 46.390625 
L 45.40625 54.6875 
L 54.390625 54.6875 
z
" id="DejaVuSans-103"/>
       <path id="DejaVuSans-32"/>
       <path d="M 64.40625 67.28125 
L 64.40625 56.890625 
Q 59.421875 61.53125 53.78125 63.8125 
Q 48.140625 66.109375 41.796875 66.109375 
Q 29.296875 66.109375 22.65625 58.46875 
Q 16.015625 50.828125 16.015625 36.375 
Q 16.015625 21.96875 22.65625 14.328125 
Q 29.296875 6.6875 41.796875 6.6875 
Q 48.140625 6.6875 53.78125 8.984375 
Q 59.421875 11.28125 64.40625 15.921875 
L 64.40625 5.609375 
Q 59.234375 2.09375 53.4375 0.328125 
Q 47.65625 -1.421875 41.21875 -1.421875 
Q 24.65625 -1.421875 15.125 8.703125 
Q 5.609375 18.84375 5.609375 36.375 
Q 5.609375 53.953125 15.125 64.078125 
Q 24.65625 74.21875 41.21875 74.21875 
Q 47.75 74.21875 53.53125 72.484375 
Q 59.328125 70.75 64.40625 67.28125 
z
" id="DejaVuSans-67"/>
       <path d="M 30.609375 48.390625 
Q 23.390625 48.390625 19.1875 42.75 
Q 14.984375 37.109375 14.984375 27.296875 
Q 14.984375 17.484375 19.15625 11.84375 
Q 23.34375 6.203125 30.609375 6.203125 
Q 37.796875 6.203125 41.984375 11.859375 
Q 46.1875 17.53125 46.1875 27.296875 
Q 46.1875 37.015625 41.984375 42.703125 
Q 37.796875 48.390625 30.609375 48.390625 
z
M 30.609375 56 
Q 42.328125 56 49.015625 48.375 
Q 55.71875 40.765625 55.71875 27.296875 
Q 55.71875 13.875 49.015625 6.21875 
Q 42.328125 -1.421875 30.609375 -1.421875 
Q 18.84375 -1.421875 12.171875 6.21875 
Q 5.515625 13.875 5.515625 27.296875 
Q 5.515625 40.765625 12.171875 48.375 
Q 18.84375 56 30.609375 56 
z
" id="DejaVuSans-111"/>
       <path d="M 8.5 21.578125 
L 8.5 54.6875 
L 17.484375 54.6875 
L 17.484375 21.921875 
Q 17.484375 14.15625 20.5 10.265625 
Q 23.53125 6.390625 29.59375 6.390625 
Q 36.859375 6.390625 41.078125 11.03125 
Q 45.3125 15.671875 45.3125 23.6875 
L 45.3125 54.6875 
L 54.296875 54.6875 
L 54.296875 0 
L 45.3125 0 
L 45.3125 8.40625 
Q 42.046875 3.421875 37.71875 1 
Q 33.40625 -1.421875 27.6875 -1.421875 
Q 18.265625 -1.421875 13.375 4.4375 
Q 8.5 10.296875 8.5 21.578125 
z
M 31.109375 56 
z
" id="DejaVuSans-117"/>
       <path d="M 54.890625 33.015625 
L 54.890625 0 
L 45.90625 0 
L 45.90625 32.71875 
Q 45.90625 40.484375 42.875 44.328125 
Q 39.84375 48.1875 33.796875 48.1875 
Q 26.515625 48.1875 22.3125 43.546875 
Q 18.109375 38.921875 18.109375 30.90625 
L 18.109375 0 
L 9.078125 0 
L 9.078125 54.6875 
L 18.109375 54.6875 
L 18.109375 46.1875 
Q 21.34375 51.125 25.703125 53.5625 
Q 30.078125 56 35.796875 56 
Q 45.21875 56 50.046875 50.171875 
Q 54.890625 44.34375 54.890625 33.015625 
z
" id="DejaVuSans-110"/>
       <path d="M 18.3125 70.21875 
L 18.3125 54.6875 
L 36.8125 54.6875 
L 36.8125 47.703125 
L 18.3125 47.703125 
L 18.3125 18.015625 
Q 18.3125 11.328125 20.140625 9.421875 
Q 21.96875 7.515625 27.59375 7.515625 
L 36.8125 7.515625 
L 36.8125 0 
L 27.59375 0 
Q 17.1875 0 13.234375 3.875 
Q 9.28125 7.765625 9.28125 18.015625 
L 9.28125 47.703125 
L 2.6875 47.703125 
L 2.6875 54.6875 
L 9.28125 54.6875 
L 9.28125 70.21875 
z
" id="DejaVuSans-116"/>
       <path d="M 8.59375 75.984375 
L 29.296875 75.984375 
L 29.296875 69 
L 17.578125 69 
L 17.578125 -6.203125 
L 29.296875 -6.203125 
L 29.296875 -13.1875 
L 8.59375 -13.1875 
z
" id="DejaVuSans-91"/>
       <path d="M 9.421875 54.6875 
L 18.40625 54.6875 
L 18.40625 0 
L 9.421875 0 
z
M 9.421875 75.984375 
L 18.40625 75.984375 
L 18.40625 64.59375 
L 9.421875 64.59375 
z
" id="DejaVuSans-105"/>
       <path d="M 30.421875 75.984375 
L 30.421875 -13.1875 
L 9.71875 -13.1875 
L 9.71875 -6.203125 
L 21.390625 -6.203125 
L 21.390625 69 
L 9.71875 69 
L 9.71875 75.984375 
z
" id="DejaVuSans-93"/>
      </defs>
      <use xlink:href="#DejaVuSans-77"/>
      <use x="86.279297" xlink:href="#DejaVuSans-101"/>
      <use x="147.802734" xlink:href="#DejaVuSans-115"/>
      <use x="199.902344" xlink:href="#DejaVuSans-115"/>
      <use x="252.001953" xlink:href="#DejaVuSans-97"/>
      <use x="313.28125" xlink:href="#DejaVuSans-103"/>
      <use x="376.757812" xlink:href="#DejaVuSans-101"/>
      <use x="438.28125" xlink:href="#DejaVuSans-32"/>
      <use x="470.068359" xlink:href="#DejaVuSans-67"/>
      <use x="539.892578" xlink:href="#DejaVuSans-111"/>
      <use x="601.074219" xlink:href="#DejaVuSans-117"/>
      <use x="664.453125" xlink:href="#DejaVuSans-110"/>
      <use x="727.832031" xlink:href="#DejaVuSans-116"/>
      <use x="767.041016" xlink:href="#DejaVuSans-32"/>
      <use x="798.828125" xlink:href="#DejaVuSans-91"/>
      <use x="837.841797" xlink:href="#DejaVuSans-105"/>
      <use x="865.625" xlink:href="#DejaVuSans-110"/>
      <use x="929.003906" xlink:href="#DejaVuSans-116"/>
      <use x="968.212891" xlink:href="#DejaVuSans-93"/>
     </g>
    </g>
   </g>
   <g id="matplotlib.axis_2">
    <g id="ytick_1">
     <g id="line2d_19">
      <path clip-path="url(#p452b5ac35a)" d="M 55.345313 274.664411 
L 972.889063 274.664411 
" style="fill:none;stroke:#b0b0b0;stroke-linecap:square;stroke-width:0.8;"/>
     </g>
     <g id="line2d_20">
      <defs>
       <path d="M 0 0 
L -3.5 0 
" id="m453fc1eba5" style="stroke:#000000;stroke-width:0.8;"/>
      </defs>
      <g>
       <use style="stroke:#000000;stroke-width:0.8;" x="55.345313" xlink:href="#m453fc1eba5" y="274.664411"/>
      </g>
     </g>
     <g id="text_11">
      <!-- −200 -->
      <g transform="translate(20.878125 278.46363)scale(0.1 -0.1)">
       <defs>
        <path d="M 10.59375 35.5 
L 73.1875 35.5 
L 73.1875 27.203125 
L 10.59375 27.203125 
z
" id="DejaVuSans-8722"/>
        <path d="M 19.1875 8.296875 
L 53.609375 8.296875 
L 53.609375 0 
L 7.328125 0 
L 7.328125 8.296875 
Q 12.9375 14.109375 22.625 23.890625 
Q 32.328125 33.6875 34.8125 36.53125 
Q 39.546875 41.84375 41.421875 45.53125 
Q 43.3125 49.21875 43.3125 52.78125 
Q 43.3125 58.59375 39.234375 62.25 
Q 35.15625 65.921875 28.609375 65.921875 
Q 23.96875 65.921875 18.8125 64.3125 
Q 13.671875 62.703125 7.8125 59.421875 
L 7.8125 69.390625 
Q 13.765625 71.78125 18.9375 73 
Q 24.125 74.21875 28.421875 74.21875 
Q 39.75 74.21875 46.484375 68.546875 
Q 53.21875 62.890625 53.21875 53.421875 
Q 53.21875 48.921875 51.53125 44.890625 
Q 49.859375 40.875 45.40625 35.40625 
Q 44.1875 33.984375 37.640625 27.21875 
Q 31.109375 20.453125 19.1875 8.296875 
z
" id="DejaVuSans-50"/>
       </defs>
       <use xlink:href="#DejaVuSans-8722"/>
       <use x="83.789062" xlink:href="#DejaVuSans-50"/>
       <use x="147.412109" xlink:href="#DejaVuSans-48"/>
       <use x="211.035156" xlink:href="#DejaVuSans-48"/>
      </g>
     </g>
    </g>
    <g id="ytick_2">
     <g id="line2d_21">
      <path clip-path="url(#p452b5ac35a)" d="M 55.345313 226.089573 
L 972.889063 226.089573 
" style="fill:none;stroke:#b0b0b0;stroke-linecap:square;stroke-width:0.8;"/>
     </g>
     <g id="line2d_22">
      <g>
       <use style="stroke:#000000;stroke-width:0.8;" x="55.345313" xlink:href="#m453fc1eba5" y="226.089573"/>
      </g>
     </g>
     <g id="text_12">
      <!-- 0 -->
      <g transform="translate(41.982813 229.888791)scale(0.1 -0.1)">
       <use xlink:href="#DejaVuSans-48"/>
      </g>
     </g>
    </g>
    <g id="ytick_3">
     <g id="line2d_23">
      <path clip-path="url(#p452b5ac35a)" d="M 55.345313 177.514734 
L 972.889063 177.514734 
" style="fill:none;stroke:#b0b0b0;stroke-linecap:square;stroke-width:0.8;"/>
     </g>
     <g id="line2d_24">
      <g>
       <use style="stroke:#000000;stroke-width:0.8;" x="55.345313" xlink:href="#m453fc1eba5" y="177.514734"/>
      </g>
     </g>
     <g id="text_13">
      <!-- 200 -->
      <g transform="translate(29.257813 181.313953)scale(0.1 -0.1)">
       <use xlink:href="#DejaVuSans-50"/>
       <use x="63.623047" xlink:href="#DejaVuSans-48"/>
       <use x="127.246094" xlink:href="#DejaVuSans-48"/>
      </g>
     </g>
    </g>
    <g id="ytick_4">
     <g id="line2d_25">
      <path clip-path="url(#p452b5ac35a)" d="M 55.345313 128.939896 
L 972.889063 128.939896 
" style="fill:none;stroke:#b0b0b0;stroke-linecap:square;stroke-width:0.8;"/>
     </g>
     <g id="line2d_26">
      <g>
       <use style="stroke:#000000;stroke-width:0.8;" x="55.345313" xlink:href="#m453fc1eba5" y="128.939896"/>
      </g>
     </g>
     <g id="text_14">
      <!-- 400 -->
      <g transform="translate(29.257813 132.739114)scale(0.1 -0.1)">
       <defs>
        <path d="M 37.796875 64.3125 
L 12.890625 25.390625 
L 37.796875 25.390625 
z
M 35.203125 72.90625 
L 47.609375 72.90625 
L 47.609375 25.390625 
L 58.015625 25.390625 
L 58.015625 17.1875 
L 47.609375 17.1875 
L 47.609375 0 
L 37.796875 0 
L 37.796875 17.1875 
L 4.890625 17.1875 
L 4.890625 26.703125 
z
" id="DejaVuSans-52"/>
       </defs>
       <use xlink:href="#DejaVuSans-52"/>
       <use x="63.623047" xlink:href="#DejaVuSans-48"/>
       <use x="127.246094" xlink:href="#DejaVuSans-48"/>
      </g>
     </g>
    </g>
    <g id="ytick_5">
     <g id="line2d_27">
      <path clip-path="url(#p452b5ac35a)" d="M 55.345313 80.365057 
L 972.889063 80.365057 
" style="fill:none;stroke:#b0b0b0;stroke-linecap:square;stroke-width:0.8;"/>
     </g>
     <g id="line2d_28">
      <g>
       <use style="stroke:#000000;stroke-width:0.8;" x="55.345313" xlink:href="#m453fc1eba5" y="80.365057"/>
      </g>
     </g>
     <g id="text_15">
      <!-- 600 -->
      <g transform="translate(29.257813 84.164276)scale(0.1 -0.1)">
       <use xlink:href="#DejaVuSans-54"/>
       <use x="63.623047" xlink:href="#DejaVuSans-48"/>
       <use x="127.246094" xlink:href="#DejaVuSans-48"/>
      </g>
     </g>
    </g>
    <g id="ytick_6">
     <g id="line2d_29">
      <path clip-path="url(#p452b5ac35a)" d="M 55.345313 31.790219 
L 972.889063 31.790219 
" style="fill:none;stroke:#b0b0b0;stroke-linecap:square;stroke-width:0.8;"/>
     </g>
     <g id="line2d_30">
      <g>
       <use style="stroke:#000000;stroke-width:0.8;" x="55.345313" xlink:href="#m453fc1eba5" y="31.790219"/>
      </g>
     </g>
     <g id="text_16">
      <!-- 800 -->
      <g transform="translate(29.257813 35.589437)scale(0.1 -0.1)">
       <use xlink:href="#DejaVuSans-56"/>
       <use x="63.623047" xlink:href="#DejaVuSans-48"/>
       <use x="127.246094" xlink:href="#DejaVuSans-48"/>
      </g>
     </g>
    </g>
    <g id="text_17">
     <!-- Error [Lux] -->
     <g style="fill:#1f77b4;" transform="translate(14.798438 192.966302)rotate(-90)scale(0.1 -0.1)">
      <defs>
       <path d="M 9.8125 72.90625 
L 55.90625 72.90625 
L 55.90625 64.59375 
L 19.671875 64.59375 
L 19.671875 43.015625 
L 54.390625 43.015625 
L 54.390625 34.71875 
L 19.671875 34.71875 
L 19.671875 8.296875 
L 56.78125 8.296875 
L 56.78125 0 
L 9.8125 0 
z
" id="DejaVuSans-69"/>
       <path d="M 41.109375 46.296875 
Q 39.59375 47.171875 37.8125 47.578125 
Q 36.03125 48 33.890625 48 
Q 26.265625 48 22.1875 43.046875 
Q 18.109375 38.09375 18.109375 28.8125 
L 18.109375 0 
L 9.078125 0 
L 9.078125 54.6875 
L 18.109375 54.6875 
L 18.109375 46.1875 
Q 20.953125 51.171875 25.484375 53.578125 
Q 30.03125 56 36.53125 56 
Q 37.453125 56 38.578125 55.875 
Q 39.703125 55.765625 41.0625 55.515625 
z
" id="DejaVuSans-114"/>
       <path d="M 9.8125 72.90625 
L 19.671875 72.90625 
L 19.671875 8.296875 
L 55.171875 8.296875 
L 55.171875 0 
L 9.8125 0 
z
" id="DejaVuSans-76"/>
       <path d="M 54.890625 54.6875 
L 35.109375 28.078125 
L 55.90625 0 
L 45.3125 0 
L 29.390625 21.484375 
L 13.484375 0 
L 2.875 0 
L 24.125 28.609375 
L 4.6875 54.6875 
L 15.28125 54.6875 
L 29.78125 35.203125 
L 44.28125 54.6875 
z
" id="DejaVuSans-120"/>
      </defs>
      <use xlink:href="#DejaVuSans-69"/>
      <use x="63.183594" xlink:href="#DejaVuSans-114"/>
      <use x="102.546875" xlink:href="#DejaVuSans-114"/>
      <use x="141.410156" xlink:href="#DejaVuSans-111"/>
      <use x="202.591797" xlink:href="#DejaVuSans-114"/>
      <use x="243.705078" xlink:href="#DejaVuSans-32"/>
      <use x="275.492188" xlink:href="#DejaVuSans-91"/>
      <use x="314.505859" xlink:href="#DejaVuSans-76"/>
      <use x="368.46875" xlink:href="#DejaVuSans-117"/>
      <use x="431.847656" xlink:href="#DejaVuSans-120"/>
      <use x="491.027344" xlink:href="#DejaVuSans-93"/>
     </g>
    </g>
   </g>
   <g id="line2d_31">
    <path clip-path="url(#p452b5ac35a)" d="M 97.051847 220.017718 
L 97.051847 220.503466 
L 99.137173 220.503466 
L 99.137173 220.989215 
L 101.2225 220.989215 
L 101.2225 221.232089 
L 103.307827 221.232089 
L 103.307827 221.474963 
L 105.393153 221.474963 
L 105.393153 222.203586 
L 111.649134 222.203586 
L 111.649134 233.375798 
L 113.73446 233.375798 
L 113.73446 236.290289 
L 115.819787 236.290289 
L 115.819787 238.719031 
L 117.905114 238.719031 
L 117.905114 241.876395 
L 119.99044 241.876395 
L 119.99044 246.248131 
L 122.075767 246.248131 
L 122.075767 249.405495 
L 124.161094 249.405495 
L 124.161094 252.805734 
L 126.24642 252.805734 
L 126.24642 258.148966 
L 128.331747 258.148966 
L 128.331747 259.363337 
L 130.417074 259.363337 
L 130.417074 258.39184 
L 132.502401 258.39184 
L 132.502401 258.148966 
L 136.673054 258.148966 
L 136.673054 257.420343 
L 138.758381 257.420343 
L 138.758381 256.934595 
L 140.843707 256.934595 
L 140.843707 255.963098 
L 142.929034 255.963098 
L 142.929034 254.020105 
L 145.014361 254.020105 
L 145.014361 253.048608 
L 147.099688 253.048608 
L 147.099688 252.805734 
L 149.185014 252.805734 
L 149.185014 251.834237 
L 151.270341 251.834237 
L 151.270341 250.86274 
L 157.526321 250.86274 
L 157.526321 250.134118 
L 159.611648 250.134118 
L 159.611648 249.891244 
L 163.782301 249.891244 
L 163.782301 249.405495 
L 165.867628 249.405495 
L 165.867628 249.162621 
L 167.952955 249.162621 
L 167.952955 248.919747 
L 172.123608 248.919747 
L 172.123608 247.94825 
L 174.208935 247.94825 
L 174.208935 247.219627 
L 176.294261 247.219627 
L 176.294261 246.248131 
L 178.379588 246.248131 
L 178.379588 245.519508 
L 180.464915 245.519508 
L 180.464915 244.790885 
L 182.550241 244.790885 
L 182.550241 244.305137 
L 184.635568 244.305137 
L 184.635568 243.576514 
L 186.720895 243.576514 
L 186.720895 242.605018 
L 190.891548 242.605018 
L 190.891548 240.904898 
L 192.976875 240.904898 
L 192.976875 240.176276 
L 195.062202 240.176276 
L 195.062202 239.933402 
L 197.147528 239.933402 
L 197.147528 238.961905 
L 199.232855 238.961905 
L 199.232855 237.747534 
L 201.318182 237.747534 
L 201.318182 237.018911 
L 203.403509 237.018911 
L 203.403509 235.80454 
L 205.488835 235.80454 
L 205.488835 235.075918 
L 207.574162 235.075918 
L 207.574162 233.618673 
L 209.659489 233.618673 
L 209.659489 233.375798 
L 211.744815 233.375798 
L 211.744815 232.161427 
L 213.830142 232.161427 
L 213.830142 231.189931 
L 215.915469 231.189931 
L 215.915469 230.461308 
L 218.000795 230.461308 
L 218.000795 230.218434 
L 220.086122 230.218434 
L 220.086122 233.132924 
L 222.171449 233.132924 
L 222.171449 233.618673 
L 224.256776 233.618673 
L 224.256776 234.347295 
L 226.342102 234.347295 
L 226.342102 236.047415 
L 228.427429 236.047415 
L 228.427429 237.261785 
L 230.512756 237.261785 
L 230.512756 238.719031 
L 232.598082 238.719031 
L 232.598082 238.233282 
L 234.683409 238.233282 
L 234.683409 237.990408 
L 236.768736 237.990408 
L 236.768736 236.776037 
L 238.854063 236.776037 
L 238.854063 235.80454 
L 240.939389 235.80454 
L 240.939389 235.318792 
L 243.024716 235.318792 
L 243.024716 234.590169 
L 245.110043 234.590169 
L 245.110043 233.132924 
L 247.195369 233.132924 
L 247.195369 232.404302 
L 249.280696 232.404302 
L 249.280696 231.432805 
L 251.366023 231.432805 
L 251.366023 230.461308 
L 253.451349 230.461308 
L 253.451349 221.232089 
L 255.536676 221.232089 
L 255.536676 219.531969 
L 257.622003 219.531969 
L 257.622003 217.83185 
L 259.70733 217.83185 
L 259.70733 215.645982 
L 261.792656 215.645982 
L 261.792656 215.888857 
L 263.877983 215.888857 
L 263.877983 217.346102 
L 265.96331 217.346102 
L 265.96331 218.560473 
L 268.048636 218.560473 
L 268.048636 219.289095 
L 270.133963 219.289095 
L 270.133963 220.260592 
L 272.21929 220.260592 
L 272.21929 220.989215 
L 274.304616 220.989215 
L 274.304616 221.960711 
L 276.389943 221.960711 
L 276.389943 220.260592 
L 278.47527 220.260592 
L 278.47527 217.83185 
L 280.560597 217.83185 
L 280.560597 214.674486 
L 282.645923 214.674486 
L 282.645923 211.031373 
L 284.73125 211.031373 
L 284.73125 206.659637 
L 286.816577 206.659637 
L 286.816577 203.259399 
L 288.901903 203.259399 
L 288.901903 201.073531 
L 290.98723 201.073531 
L 290.98723 199.616286 
L 293.072557 199.616286 
L 293.072557 195.973173 
L 295.157884 195.973173 
L 295.157884 195.487424 
L 297.24321 195.487424 
L 297.24321 196.701795 
L 299.328537 196.701795 
L 299.328537 197.673292 
L 301.413864 197.673292 
L 301.413864 198.15904 
L 303.49919 198.15904 
L 303.49919 199.85916 
L 305.584517 199.85916 
L 305.584517 200.830657 
L 307.669844 200.830657 
L 307.669844 201.802153 
L 309.75517 201.802153 
L 309.75517 203.259399 
L 311.840497 203.259399 
L 311.840497 203.745147 
L 313.925824 203.745147 
L 313.925824 204.473769 
L 316.011151 204.473769 
L 316.011151 205.445266 
L 318.096477 205.445266 
L 318.096477 206.173889 
L 320.181804 206.173889 
L 320.181804 206.659637 
L 322.267131 206.659637 
L 322.267131 207.38826 
L 324.352457 207.38826 
L 324.352457 208.359757 
L 326.437784 208.359757 
L 326.437784 209.088379 
L 328.523111 209.088379 
L 328.523111 209.817002 
L 330.608438 209.817002 
L 330.608438 210.30275 
L 332.693764 210.30275 
L 332.693764 211.031373 
L 334.779091 211.031373 
L 334.779091 212.002869 
L 336.864418 212.002869 
L 336.864418 212.245744 
L 338.949744 212.245744 
L 338.949744 212.974366 
L 341.035071 212.974366 
L 341.035071 213.460115 
L 343.120398 213.460115 
L 343.120398 213.702989 
L 347.291051 213.702989 
L 347.291051 213.945863 
L 349.376378 213.945863 
L 349.376378 214.431611 
L 353.547031 214.431611 
L 353.547031 214.91736 
L 357.717685 214.91736 
L 357.717685 215.645982 
L 359.803011 215.645982 
L 359.803011 216.617479 
L 361.888338 216.617479 
L 361.888338 217.346102 
L 363.973665 217.346102 
L 363.973665 217.83185 
L 366.058991 217.83185 
L 366.058991 219.046221 
L 368.144318 219.046221 
L 368.144318 220.017718 
L 372.314972 220.017718 
L 372.314972 220.989215 
L 374.400298 220.989215 
L 374.400298 222.203586 
L 378.570952 222.203586 
L 378.570952 230.218434 
L 380.656278 230.218434 
L 380.656278 133.797379 
L 382.741605 133.797379 
L 382.741605 26.446986 
L 384.826932 26.446986 
L 384.826932 25.47549 
L 386.912259 25.47549 
L 386.912259 22.318125 
L 388.997585 22.318125 
L 388.997585 22.803873 
L 391.082912 22.803873 
L 391.082912 23.532496 
L 395.253565 23.532496 
L 395.253565 24.018244 
L 397.338892 24.018244 
L 397.338892 24.746867 
L 399.424219 24.746867 
L 399.424219 24.989741 
L 401.509545 24.989741 
L 401.509545 25.47549 
L 403.594872 25.47549 
L 403.594872 26.932735 
L 405.680199 26.932735 
L 405.680199 27.418483 
L 407.765526 27.418483 
L 407.765526 27.904231 
L 409.850852 27.904231 
L 409.850852 28.632854 
L 414.021506 28.632854 
L 414.021506 29.361477 
L 416.106832 29.361477 
L 416.106832 30.090099 
L 418.192159 30.090099 
L 418.192159 30.575848 
L 422.362813 30.575848 
L 422.362813 31.30447 
L 424.448139 31.30447 
L 424.448139 32.033093 
L 426.533466 32.033093 
L 426.533466 33.004589 
L 428.618793 33.004589 
L 428.618793 33.490338 
L 430.704119 33.490338 
L 430.704119 34.21896 
L 432.789446 34.21896 
L 432.789446 33.976086 
L 434.874773 33.976086 
L 434.874773 34.947583 
L 436.960099 34.947583 
L 436.960099 35.190457 
L 441.130753 35.190457 
L 441.130753 35.676206 
L 445.301406 35.676206 
L 445.301406 37.133451 
L 447.386733 37.133451 
L 447.386733 37.619199 
L 449.47206 37.619199 
L 449.47206 37.862073 
L 451.557386 37.862073 
L 451.557386 38.590696 
L 455.72804 38.590696 
L 455.72804 39.076444 
L 459.898693 39.076444 
L 459.898693 39.562193 
L 461.98402 39.562193 
L 461.98402 40.290815 
L 464.069347 40.290815 
L 464.069347 41.262312 
L 466.154673 41.262312 
L 466.154673 41.505186 
L 468.24 41.505186 
L 468.24 41.74806 
L 470.325327 41.74806 
L 470.325327 42.233809 
L 472.410653 42.233809 
L 472.410653 41.74806 
L 474.49598 41.74806 
L 474.49598 42.719557 
L 476.581307 42.719557 
L 476.581307 42.476683 
L 478.666634 42.476683 
L 478.666634 43.691054 
L 480.75196 43.691054 
L 480.75196 44.176802 
L 482.837287 44.176802 
L 482.837287 44.419677 
L 484.922614 44.419677 
L 484.922614 45.148299 
L 489.093267 45.148299 
L 489.093267 45.391173 
L 491.178594 45.391173 
L 491.178594 45.876922 
L 493.26392 45.876922 
L 493.26392 46.848418 
L 495.349247 46.848418 
L 495.349247 46.36267 
L 497.434574 46.36267 
L 497.434574 47.091293 
L 501.605227 47.091293 
L 501.605227 47.334167 
L 503.690554 47.334167 
L 503.690554 48.062789 
L 507.861207 48.062789 
L 507.861207 48.791412 
L 509.946534 48.791412 
L 509.946534 49.034286 
L 512.031861 49.034286 
L 512.031861 49.27716 
L 514.117188 49.27716 
L 514.117188 49.762909 
L 516.202514 49.762909 
L 516.202514 49.27716 
L 518.287841 49.27716 
L 518.287841 50.005783 
L 520.373168 50.005783 
L 520.373168 50.734406 
L 522.458494 50.734406 
L 522.458494 50.248657 
L 524.543821 50.248657 
L 524.543821 50.734406 
L 528.714474 50.734406 
L 528.714474 51.463028 
L 530.799801 51.463028 
L 530.799801 51.948777 
L 532.885128 51.948777 
L 532.885128 52.434525 
L 534.970455 52.434525 
L 534.970455 52.677399 
L 537.055781 52.677399 
L 537.055781 52.434525 
L 539.141108 52.434525 
L 539.141108 52.677399 
L 543.311761 52.677399 
L 543.311761 52.920273 
L 545.397088 52.920273 
L 545.397088 53.648896 
L 549.567741 53.648896 
L 549.567741 53.89177 
L 553.738395 53.89177 
L 553.738395 54.620393 
L 555.823722 54.620393 
L 555.823722 54.863267 
L 559.994375 54.863267 
L 559.994375 55.349015 
L 562.079702 55.349015 
L 562.079702 55.834764 
L 566.250355 55.834764 
L 566.250355 55.591889 
L 568.335682 55.591889 
L 568.335682 56.320512 
L 572.506335 56.320512 
L 572.506335 56.563386 
L 574.591662 56.563386 
L 574.591662 57.049135 
L 576.676989 57.049135 
L 576.676989 57.292009 
L 580.847642 57.292009 
L 580.847642 58.020631 
L 582.932969 58.020631 
L 582.932969 58.50638 
L 585.018295 58.50638 
L 585.018295 58.263506 
L 587.103622 58.263506 
L 587.103622 58.50638 
L 589.188949 58.50638 
L 589.188949 58.992128 
L 591.274276 58.992128 
L 591.274276 59.235002 
L 593.359602 59.235002 
L 593.359602 241.390647 
L 595.444929 241.390647 
L 595.444929 263.00645 
L 597.530256 263.00645 
L 597.530256 276.121656 
L 599.615582 276.121656 
L 599.615582 310.609792 
L 603.786236 310.609792 
L 603.786236 310.366917 
L 605.871563 310.366917 
L 605.871563 309.881169 
L 610.042216 309.881169 
L 610.042216 309.638295 
L 612.127543 309.638295 
L 612.127543 309.395421 
L 616.298196 309.395421 
L 616.298196 308.909672 
L 618.383523 308.909672 
L 618.383523 308.666798 
L 620.468849 308.666798 
L 620.468849 308.423924 
L 622.554176 308.423924 
L 622.554176 307.938176 
L 626.72483 307.938176 
L 626.72483 307.695301 
L 628.810156 307.695301 
L 628.810156 307.938176 
L 630.895483 307.938176 
L 630.895483 307.209553 
L 632.98081 307.209553 
L 632.98081 306.966679 
L 637.151463 306.966679 
L 637.151463 306.723805 
L 639.23679 306.723805 
L 639.23679 306.238056 
L 641.322116 306.238056 
L 641.322116 305.995182 
L 645.49277 305.995182 
L 645.49277 305.752308 
L 649.663423 305.752308 
L 649.663423 305.266559 
L 651.74875 305.266559 
L 651.74875 304.780811 
L 655.919403 304.780811 
L 655.919403 304.295063 
L 660.090057 304.295063 
L 660.090057 304.052188 
L 662.175384 304.052188 
L 662.175384 303.323566 
L 666.346037 303.323566 
L 666.346037 303.080692 
L 670.51669 303.080692 
L 670.51669 302.837818 
L 672.602017 302.837818 
L 672.602017 302.352069 
L 674.687344 302.352069 
L 674.687344 301.623447 
L 676.77267 301.623447 
L 676.77267 301.380572 
L 680.943324 301.380572 
L 680.943324 301.137698 
L 683.028651 301.137698 
L 683.028651 300.65195 
L 685.113977 300.65195 
L 685.113977 300.409076 
L 687.199304 300.409076 
L 687.199304 300.166201 
L 689.284631 300.166201 
L 689.284631 299.437579 
L 695.540611 299.437579 
L 695.540611 299.194705 
L 697.625938 299.194705 
L 697.625938 298.708956 
L 699.711264 298.708956 
L 699.711264 297.737459 
L 701.796591 297.737459 
L 701.796591 297.494585 
L 703.881918 297.494585 
L 703.881918 297.251711 
L 708.052571 297.251711 
L 708.052571 296.523088 
L 710.137898 296.523088 
L 710.137898 296.03734 
L 714.308551 296.03734 
L 714.308551 295.551592 
L 716.393878 295.551592 
L 716.393878 294.822969 
L 720.564531 294.822969 
L 720.564531 294.580095 
L 724.735185 294.580095 
L 724.735185 293.851472 
L 726.820511 293.851472 
L 726.820511 293.608598 
L 728.905838 293.608598 
L 728.905838 293.12285 
L 730.991165 293.12285 
L 730.991165 292.637101 
L 733.076491 292.637101 
L 733.076491 292.151353 
L 735.161818 292.151353 
L 735.161818 291.665605 
L 737.247145 291.665605 
L 737.247145 291.179856 
L 739.332472 291.179856 
L 739.332472 290.936982 
L 741.417798 290.936982 
L 741.417798 290.451234 
L 745.588452 290.451234 
L 745.588452 289.965485 
L 747.673778 289.965485 
L 747.673778 288.993989 
L 749.759105 288.993989 
L 749.759105 288.50824 
L 751.844432 288.50824 
L 751.844432 288.265366 
L 753.929759 288.265366 
L 753.929759 287.536743 
L 758.100412 287.536743 
L 758.100412 287.050995 
L 760.185739 287.050995 
L 760.185739 286.565247 
L 764.356392 286.565247 
L 764.356392 286.079498 
L 766.441719 286.079498 
L 766.441719 285.59375 
L 768.527045 285.59375 
L 768.527045 283.89363 
L 772.697699 283.89363 
L 772.697699 283.650756 
L 774.783026 283.650756 
L 774.783026 282.922134 
L 776.868352 282.922134 
L 776.868352 282.67926 
L 778.953679 282.67926 
L 778.953679 282.436385 
L 783.124332 282.436385 
L 783.124332 281.707763 
L 785.209659 281.707763 
L 785.209659 280.97914 
L 789.380313 280.97914 
L 789.380313 280.493392 
L 791.465639 280.493392 
L 791.465639 279.279021 
L 793.550966 279.279021 
L 793.550966 278.307524 
L 795.636293 278.307524 
L 795.636293 278.06465 
L 797.721619 278.06465 
L 797.721619 277.336027 
L 801.892273 277.336027 
L 801.892273 276.364531 
L 803.977599 276.364531 
L 803.977599 276.121656 
L 806.062926 276.121656 
L 806.062926 275.393034 
L 808.148253 275.393034 
L 808.148253 275.15016 
L 810.23358 275.15016 
L 810.23358 274.907285 
L 814.404233 274.907285 
L 814.404233 274.178663 
L 816.48956 274.178663 
L 816.48956 273.207166 
L 818.574886 273.207166 
L 818.574886 271.507047 
L 820.660213 271.507047 
L 820.660213 271.264172 
L 822.74554 271.264172 
L 822.74554 269.806927 
L 824.830866 269.806927 
L 824.830866 268.592556 
L 826.916193 268.592556 
L 826.916193 267.863934 
L 831.086847 267.863934 
L 831.086847 267.135311 
L 835.2575 267.135311 
L 835.2575 266.892437 
L 837.342827 266.892437 
L 837.342827 266.649563 
L 841.51348 266.649563 
L 841.51348 265.92094 
L 845.684134 265.92094 
L 845.684134 265.678066 
L 847.76946 265.678066 
L 847.76946 264.949443 
L 849.854787 264.949443 
L 849.854787 263.977947 
L 851.940114 263.977947 
L 851.940114 263.249324 
L 854.02544 263.249324 
L 854.02544 262.520702 
L 856.110767 262.520702 
L 856.110767 262.034953 
L 858.196094 262.034953 
L 858.196094 261.306331 
L 860.28142 261.306331 
L 860.28142 260.334834 
L 862.366747 260.334834 
L 862.366747 259.606211 
L 864.452074 259.606211 
L 864.452074 259.120463 
L 866.537401 259.120463 
L 866.537401 258.39184 
L 868.622727 258.39184 
L 868.622727 257.420343 
L 870.708054 257.420343 
L 870.708054 256.691721 
L 872.793381 256.691721 
L 872.793381 255.47735 
L 874.878707 255.47735 
L 874.878707 254.991602 
L 876.964034 254.991602 
L 876.964034 253.777231 
L 879.049361 253.777231 
L 879.049361 252.56286 
L 881.134688 252.56286 
L 881.134688 251.834237 
L 883.220014 251.834237 
L 883.220014 250.86274 
L 885.305341 250.86274 
L 885.305341 249.891244 
L 887.390668 249.891244 
L 887.390668 248.919747 
L 889.475994 248.919747 
L 889.475994 247.94825 
L 891.561321 247.94825 
L 891.561321 247.462502 
L 893.646648 247.462502 
L 893.646648 247.219627 
L 895.731974 247.219627 
L 895.731974 246.976753 
L 897.817301 246.976753 
L 897.817301 244.548011 
L 899.902628 244.548011 
L 899.902628 243.576514 
L 901.987955 243.576514 
L 901.987955 242.847892 
L 904.073281 242.847892 
L 904.073281 242.362144 
L 906.158608 242.362144 
L 906.158608 241.390647 
L 908.243935 241.390647 
L 908.243935 240.662024 
L 910.329261 240.662024 
L 910.329261 239.690527 
L 912.414588 239.690527 
L 912.414588 238.719031 
L 914.499915 238.719031 
L 914.499915 237.990408 
L 916.585241 237.990408 
L 916.585241 236.776037 
L 920.755895 236.776037 
L 920.755895 235.075918 
L 922.841222 235.075918 
L 922.841222 234.347295 
L 924.926548 234.347295 
L 924.926548 233.375798 
L 927.011875 233.375798 
L 927.011875 232.404302 
L 929.097202 232.404302 
L 929.097202 231.432805 
L 931.182528 231.432805 
L 931.182528 231.432805 
" style="fill:none;stroke:#1f77b4;stroke-linecap:square;stroke-width:1.5;"/>
   </g>
   <g id="patch_3">
    <path d="M 55.345313 310.609792 
L 55.345313 22.318125 
" style="fill:none;stroke:#000000;stroke-linecap:square;stroke-linejoin:miter;stroke-width:0.8;"/>
   </g>
   <g id="patch_4">
    <path d="M 972.889063 310.609792 
L 972.889063 22.318125 
" style="fill:none;stroke:#000000;stroke-linecap:square;stroke-linejoin:miter;stroke-width:0.8;"/>
   </g>
   <g id="patch_5">
    <path d="M 55.345313 310.609792 
L 972.889063 310.609792 
" style="fill:none;stroke:#000000;stroke-linecap:square;stroke-linejoin:miter;stroke-width:0.8;"/>
   </g>
   <g id="patch_6">
    <path d="M 55.345313 22.318125 
L 972.889063 22.318125 
" style="fill:none;stroke:#000000;stroke-linecap:square;stroke-linejoin:miter;stroke-width:0.8;"/>
   </g>
   <g id="text_18">
    <!-- Error over time -->
    <g transform="translate(468.745 16.318125)scale(0.12 -0.12)">
     <defs>
      <path d="M 2.984375 54.6875 
L 12.5 54.6875 
L 29.59375 8.796875 
L 46.6875 54.6875 
L 56.203125 54.6875 
L 35.6875 0 
L 23.484375 0 
z
" id="DejaVuSans-118"/>
      <path d="M 52 44.1875 
Q 55.375 50.25 60.0625 53.125 
Q 64.75 56 71.09375 56 
Q 79.640625 56 84.28125 50.015625 
Q 88.921875 44.046875 88.921875 33.015625 
L 88.921875 0 
L 79.890625 0 
L 79.890625 32.71875 
Q 79.890625 40.578125 77.09375 44.375 
Q 74.3125 48.1875 68.609375 48.1875 
Q 61.625 48.1875 57.5625 43.546875 
Q 53.515625 38.921875 53.515625 30.90625 
L 53.515625 0 
L 44.484375 0 
L 44.484375 32.71875 
Q 44.484375 40.625 41.703125 44.40625 
Q 38.921875 48.1875 33.109375 48.1875 
Q 26.21875 48.1875 22.15625 43.53125 
Q 18.109375 38.875 18.109375 30.90625 
L 18.109375 0 
L 9.078125 0 
L 9.078125 54.6875 
L 18.109375 54.6875 
L 18.109375 46.1875 
Q 21.1875 51.21875 25.484375 53.609375 
Q 29.78125 56 35.6875 56 
Q 41.65625 56 45.828125 52.96875 
Q 50 49.953125 52 44.1875 
z
" id="DejaVuSans-109"/>
     </defs>
     <use xlink:href="#DejaVuSans-69"/>
     <use x="63.183594" xlink:href="#DejaVuSans-114"/>
     <use x="102.546875" xlink:href="#DejaVuSans-114"/>
     <use x="141.410156" xlink:href="#DejaVuSans-111"/>
     <use x="202.591797" xlink:href="#DejaVuSans-114"/>
     <use x="243.705078" xlink:href="#DejaVuSans-32"/>
     <use x="275.492188" xlink:href="#DejaVuSans-111"/>
     <use x="336.673828" xlink:href="#DejaVuSans-118"/>
     <use x="395.853516" xlink:href="#DejaVuSans-101"/>
     <use x="457.376953" xlink:href="#DejaVuSans-114"/>
     <use x="498.490234" xlink:href="#DejaVuSans-32"/>
     <use x="530.277344" xlink:href="#DejaVuSans-116"/>
     <use x="569.486328" xlink:href="#DejaVuSans-105"/>
     <use x="597.269531" xlink:href="#DejaVuSans-109"/>
     <use x="694.681641" xlink:href="#DejaVuSans-101"/>
    </g>
   </g>
  </g>
  <g id="axes_2">
   <g id="matplotlib.axis_3">
    <g id="ytick_7">
     <g id="line2d_32">
      <defs>
       <path d="M 0 0 
L 3.5 0 
" id="mfe3c501d8d" style="stroke:#000000;stroke-width:0.8;"/>
      </defs>
      <g>
       <use style="stroke:#000000;stroke-width:0.8;" x="972.889063" xlink:href="#mfe3c501d8d" y="299.932323"/>
      </g>
     </g>
     <g id="text_19">
      <!-- 0 -->
      <g transform="translate(979.889063 303.731541)scale(0.1 -0.1)">
       <use xlink:href="#DejaVuSans-48"/>
      </g>
     </g>
    </g>
    <g id="ytick_8">
     <g id="line2d_33">
      <g>
       <use style="stroke:#000000;stroke-width:0.8;" x="972.889063" xlink:href="#mfe3c501d8d" y="273.23865"/>
      </g>
     </g>
     <g id="text_20">
      <!-- 25 -->
      <g transform="translate(979.889063 277.037868)scale(0.1 -0.1)">
       <use xlink:href="#DejaVuSans-50"/>
       <use x="63.623047" xlink:href="#DejaVuSans-53"/>
      </g>
     </g>
    </g>
    <g id="ytick_9">
     <g id="line2d_34">
      <g>
       <use style="stroke:#000000;stroke-width:0.8;" x="972.889063" xlink:href="#mfe3c501d8d" y="246.544977"/>
      </g>
     </g>
     <g id="text_21">
      <!-- 50 -->
      <g transform="translate(979.889063 250.344196)scale(0.1 -0.1)">
       <use xlink:href="#DejaVuSans-53"/>
       <use x="63.623047" xlink:href="#DejaVuSans-48"/>
      </g>
     </g>
    </g>
    <g id="ytick_10">
     <g id="line2d_35">
      <g>
       <use style="stroke:#000000;stroke-width:0.8;" x="972.889063" xlink:href="#mfe3c501d8d" y="219.851304"/>
      </g>
     </g>
     <g id="text_22">
      <!-- 75 -->
      <g transform="translate(979.889063 223.650523)scale(0.1 -0.1)">
       <use xlink:href="#DejaVuSans-55"/>
       <use x="63.623047" xlink:href="#DejaVuSans-53"/>
      </g>
     </g>
    </g>
    <g id="ytick_11">
     <g id="line2d_36">
      <g>
       <use style="stroke:#000000;stroke-width:0.8;" x="972.889063" xlink:href="#mfe3c501d8d" y="193.157631"/>
      </g>
     </g>
     <g id="text_23">
      <!-- 100 -->
      <g transform="translate(979.889063 196.95685)scale(0.1 -0.1)">
       <defs>
        <path d="M 12.40625 8.296875 
L 28.515625 8.296875 
L 28.515625 63.921875 
L 10.984375 60.40625 
L 10.984375 69.390625 
L 28.421875 72.90625 
L 38.28125 72.90625 
L 38.28125 8.296875 
L 54.390625 8.296875 
L 54.390625 0 
L 12.40625 0 
z
" id="DejaVuSans-49"/>
       </defs>
       <use xlink:href="#DejaVuSans-49"/>
       <use x="63.623047" xlink:href="#DejaVuSans-48"/>
       <use x="127.246094" xlink:href="#DejaVuSans-48"/>
      </g>
     </g>
    </g>
    <g id="ytick_12">
     <g id="line2d_37">
      <g>
       <use style="stroke:#000000;stroke-width:0.8;" x="972.889063" xlink:href="#mfe3c501d8d" y="166.463958"/>
      </g>
     </g>
     <g id="text_24">
      <!-- 125 -->
      <g transform="translate(979.889063 170.263177)scale(0.1 -0.1)">
       <use xlink:href="#DejaVuSans-49"/>
       <use x="63.623047" xlink:href="#DejaVuSans-50"/>
       <use x="127.246094" xlink:href="#DejaVuSans-53"/>
      </g>
     </g>
    </g>
    <g id="ytick_13">
     <g id="line2d_38">
      <g>
       <use style="stroke:#000000;stroke-width:0.8;" x="972.889063" xlink:href="#mfe3c501d8d" y="139.770285"/>
      </g>
     </g>
     <g id="text_25">
      <!-- 150 -->
      <g transform="translate(979.889063 143.569504)scale(0.1 -0.1)">
       <use xlink:href="#DejaVuSans-49"/>
       <use x="63.623047" xlink:href="#DejaVuSans-53"/>
       <use x="127.246094" xlink:href="#DejaVuSans-48"/>
      </g>
     </g>
    </g>
    <g id="ytick_14">
     <g id="line2d_39">
      <g>
       <use style="stroke:#000000;stroke-width:0.8;" x="972.889063" xlink:href="#mfe3c501d8d" y="113.076613"/>
      </g>
     </g>
     <g id="text_26">
      <!-- 175 -->
      <g transform="translate(979.889063 116.875831)scale(0.1 -0.1)">
       <use xlink:href="#DejaVuSans-49"/>
       <use x="63.623047" xlink:href="#DejaVuSans-55"/>
       <use x="127.246094" xlink:href="#DejaVuSans-53"/>
      </g>
     </g>
    </g>
    <g id="ytick_15">
     <g id="line2d_40">
      <g>
       <use style="stroke:#000000;stroke-width:0.8;" x="972.889063" xlink:href="#mfe3c501d8d" y="86.38294"/>
      </g>
     </g>
     <g id="text_27">
      <!-- 200 -->
      <g transform="translate(979.889063 90.182159)scale(0.1 -0.1)">
       <use xlink:href="#DejaVuSans-50"/>
       <use x="63.623047" xlink:href="#DejaVuSans-48"/>
       <use x="127.246094" xlink:href="#DejaVuSans-48"/>
      </g>
     </g>
    </g>
    <g id="ytick_16">
     <g id="line2d_41">
      <g>
       <use style="stroke:#000000;stroke-width:0.8;" x="972.889063" xlink:href="#mfe3c501d8d" y="59.689267"/>
      </g>
     </g>
     <g id="text_28">
      <!-- 225 -->
      <g transform="translate(979.889063 63.488486)scale(0.1 -0.1)">
       <use xlink:href="#DejaVuSans-50"/>
       <use x="63.623047" xlink:href="#DejaVuSans-50"/>
       <use x="127.246094" xlink:href="#DejaVuSans-53"/>
      </g>
     </g>
    </g>
    <g id="ytick_17">
     <g id="line2d_42">
      <g>
       <use style="stroke:#000000;stroke-width:0.8;" x="972.889063" xlink:href="#mfe3c501d8d" y="32.995594"/>
      </g>
     </g>
     <g id="text_29">
      <!-- 250 -->
      <g transform="translate(979.889063 36.794813)scale(0.1 -0.1)">
       <use xlink:href="#DejaVuSans-50"/>
       <use x="63.623047" xlink:href="#DejaVuSans-53"/>
       <use x="127.246094" xlink:href="#DejaVuSans-48"/>
      </g>
     </g>
    </g>
    <g id="text_30">
     <!-- Intensity [0-255] -->
     <g style="fill:#d62728;" transform="translate(1010.575 208.24599)rotate(-90)scale(0.1 -0.1)">
      <defs>
       <path d="M 9.8125 72.90625 
L 19.671875 72.90625 
L 19.671875 0 
L 9.8125 0 
z
" id="DejaVuSans-73"/>
       <path d="M 32.171875 -5.078125 
Q 28.375 -14.84375 24.75 -17.8125 
Q 21.140625 -20.796875 15.09375 -20.796875 
L 7.90625 -20.796875 
L 7.90625 -13.28125 
L 13.1875 -13.28125 
Q 16.890625 -13.28125 18.9375 -11.515625 
Q 21 -9.765625 23.484375 -3.21875 
L 25.09375 0.875 
L 2.984375 54.6875 
L 12.5 54.6875 
L 29.59375 11.921875 
L 46.6875 54.6875 
L 56.203125 54.6875 
z
" id="DejaVuSans-121"/>
       <path d="M 4.890625 31.390625 
L 31.203125 31.390625 
L 31.203125 23.390625 
L 4.890625 23.390625 
z
" id="DejaVuSans-45"/>
      </defs>
      <use xlink:href="#DejaVuSans-73"/>
      <use x="29.492188" xlink:href="#DejaVuSans-110"/>
      <use x="92.871094" xlink:href="#DejaVuSans-116"/>
      <use x="132.080078" xlink:href="#DejaVuSans-101"/>
      <use x="193.603516" xlink:href="#DejaVuSans-110"/>
      <use x="256.982422" xlink:href="#DejaVuSans-115"/>
      <use x="309.082031" xlink:href="#DejaVuSans-105"/>
      <use x="336.865234" xlink:href="#DejaVuSans-116"/>
      <use x="376.074219" xlink:href="#DejaVuSans-121"/>
      <use x="435.253906" xlink:href="#DejaVuSans-32"/>
      <use x="467.041016" xlink:href="#DejaVuSans-91"/>
      <use x="506.054688" xlink:href="#DejaVuSans-48"/>
      <use x="569.677734" xlink:href="#DejaVuSans-45"/>
      <use x="605.761719" xlink:href="#DejaVuSans-50"/>
      <use x="669.384766" xlink:href="#DejaVuSans-53"/>
      <use x="733.007812" xlink:href="#DejaVuSans-53"/>
      <use x="796.630859" xlink:href="#DejaVuSans-93"/>
     </g>
    </g>
   </g>
   <g id="line2d_43">
    <path clip-path="url(#p452b5ac35a)" d="M 97.051847 192.089884 
L 97.051847 193.157631 
L 99.137173 193.157631 
L 99.137173 194.225378 
L 101.2225 194.225378 
L 101.2225 195.293125 
L 103.307827 195.293125 
L 103.307827 196.360872 
L 105.393153 196.360872 
L 105.393153 197.428619 
L 107.47848 197.428619 
L 107.47848 198.496366 
L 109.563807 198.496366 
L 109.563807 199.564113 
L 111.649134 199.564113 
L 111.649134 198.496366 
L 113.73446 198.496366 
L 113.73446 197.428619 
L 115.819787 197.428619 
L 115.819787 196.360872 
L 117.905114 196.360872 
L 117.905114 195.293125 
L 119.99044 195.293125 
L 119.99044 194.225378 
L 122.075767 194.225378 
L 122.075767 193.157631 
L 124.161094 193.157631 
L 124.161094 192.089884 
L 126.24642 192.089884 
L 126.24642 191.022137 
L 128.331747 191.022137 
L 128.331747 189.95439 
L 130.417074 189.95439 
L 130.417074 188.886644 
L 132.502401 188.886644 
L 132.502401 187.818897 
L 134.587727 187.818897 
L 134.587727 186.75115 
L 136.673054 186.75115 
L 136.673054 185.683403 
L 138.758381 185.683403 
L 138.758381 184.615656 
L 140.843707 184.615656 
L 140.843707 183.547909 
L 142.929034 183.547909 
L 142.929034 182.480162 
L 145.014361 182.480162 
L 145.014361 181.412415 
L 147.099688 181.412415 
L 147.099688 180.344668 
L 149.185014 180.344668 
L 149.185014 179.276921 
L 151.270341 179.276921 
L 151.270341 178.209174 
L 153.355668 178.209174 
L 153.355668 177.141427 
L 155.440994 177.141427 
L 155.440994 176.073681 
L 157.526321 176.073681 
L 157.526321 175.005934 
L 159.611648 175.005934 
L 159.611648 173.938187 
L 161.696974 173.938187 
L 161.696974 172.87044 
L 163.782301 172.87044 
L 163.782301 171.802693 
L 165.867628 171.802693 
L 165.867628 170.734946 
L 167.952955 170.734946 
L 167.952955 169.667199 
L 170.038281 169.667199 
L 170.038281 168.599452 
L 172.123608 168.599452 
L 172.123608 167.531705 
L 174.208935 167.531705 
L 174.208935 166.463958 
L 176.294261 166.463958 
L 176.294261 165.396211 
L 178.379588 165.396211 
L 178.379588 164.328465 
L 180.464915 164.328465 
L 180.464915 163.260718 
L 182.550241 163.260718 
L 182.550241 162.192971 
L 184.635568 162.192971 
L 184.635568 161.125224 
L 186.720895 161.125224 
L 186.720895 160.057477 
L 188.806222 160.057477 
L 188.806222 158.98973 
L 190.891548 158.98973 
L 190.891548 157.921983 
L 192.976875 157.921983 
L 192.976875 156.854236 
L 195.062202 156.854236 
L 195.062202 155.786489 
L 197.147528 155.786489 
L 197.147528 154.718742 
L 199.232855 154.718742 
L 199.232855 153.650995 
L 201.318182 153.650995 
L 201.318182 152.583248 
L 203.403509 152.583248 
L 203.403509 151.515502 
L 205.488835 151.515502 
L 205.488835 150.447755 
L 207.574162 150.447755 
L 207.574162 149.380008 
L 209.659489 149.380008 
L 209.659489 148.312261 
L 211.744815 148.312261 
L 211.744815 147.244514 
L 213.830142 147.244514 
L 213.830142 146.176767 
L 215.915469 146.176767 
L 215.915469 145.10902 
L 218.000795 145.10902 
L 218.000795 144.041273 
L 220.086122 144.041273 
L 220.086122 142.973526 
L 222.171449 142.973526 
L 222.171449 141.905779 
L 224.256776 141.905779 
L 224.256776 140.838032 
L 226.342102 140.838032 
L 226.342102 139.770285 
L 228.427429 139.770285 
L 228.427429 138.702539 
L 230.512756 138.702539 
L 230.512756 137.634792 
L 232.598082 137.634792 
L 232.598082 136.567045 
L 234.683409 136.567045 
L 234.683409 135.499298 
L 236.768736 135.499298 
L 236.768736 134.431551 
L 238.854063 134.431551 
L 238.854063 133.363804 
L 240.939389 133.363804 
L 240.939389 132.296057 
L 243.024716 132.296057 
L 243.024716 131.22831 
L 245.110043 131.22831 
L 245.110043 130.160563 
L 247.195369 130.160563 
L 247.195369 129.092816 
L 249.280696 129.092816 
L 249.280696 128.025069 
L 251.366023 128.025069 
L 251.366023 126.957323 
L 253.451349 126.957323 
L 253.451349 128.025069 
L 255.536676 128.025069 
L 255.536676 129.092816 
L 257.622003 129.092816 
L 257.622003 130.160563 
L 259.70733 130.160563 
L 259.70733 131.22831 
L 261.792656 131.22831 
L 261.792656 132.296057 
L 263.877983 132.296057 
L 263.877983 133.363804 
L 265.96331 133.363804 
L 265.96331 134.431551 
L 268.048636 134.431551 
L 268.048636 135.499298 
L 270.133963 135.499298 
L 270.133963 136.567045 
L 272.21929 136.567045 
L 272.21929 137.634792 
L 274.304616 137.634792 
L 274.304616 138.702539 
L 276.389943 138.702539 
L 276.389943 139.770285 
L 278.47527 139.770285 
L 278.47527 140.838032 
L 280.560597 140.838032 
L 280.560597 141.905779 
L 282.645923 141.905779 
L 282.645923 142.973526 
L 284.73125 142.973526 
L 284.73125 144.041273 
L 286.816577 144.041273 
L 286.816577 145.10902 
L 288.901903 145.10902 
L 288.901903 146.176767 
L 290.98723 146.176767 
L 290.98723 147.244514 
L 293.072557 147.244514 
L 293.072557 148.312261 
L 295.157884 148.312261 
L 295.157884 149.380008 
L 297.24321 149.380008 
L 297.24321 150.447755 
L 299.328537 150.447755 
L 299.328537 151.515502 
L 301.413864 151.515502 
L 301.413864 152.583248 
L 303.49919 152.583248 
L 303.49919 153.650995 
L 305.584517 153.650995 
L 305.584517 154.718742 
L 307.669844 154.718742 
L 307.669844 155.786489 
L 309.75517 155.786489 
L 309.75517 156.854236 
L 311.840497 156.854236 
L 311.840497 157.921983 
L 313.925824 157.921983 
L 313.925824 158.98973 
L 316.011151 158.98973 
L 316.011151 160.057477 
L 318.096477 160.057477 
L 318.096477 161.125224 
L 320.181804 161.125224 
L 320.181804 162.192971 
L 322.267131 162.192971 
L 322.267131 163.260718 
L 324.352457 163.260718 
L 324.352457 164.328465 
L 326.437784 164.328465 
L 326.437784 165.396211 
L 328.523111 165.396211 
L 328.523111 166.463958 
L 330.608438 166.463958 
L 330.608438 167.531705 
L 332.693764 167.531705 
L 332.693764 168.599452 
L 334.779091 168.599452 
L 334.779091 169.667199 
L 336.864418 169.667199 
L 336.864418 170.734946 
L 338.949744 170.734946 
L 338.949744 171.802693 
L 341.035071 171.802693 
L 341.035071 172.87044 
L 343.120398 172.87044 
L 343.120398 173.938187 
L 345.205724 173.938187 
L 345.205724 175.005934 
L 347.291051 175.005934 
L 347.291051 176.073681 
L 349.376378 176.073681 
L 349.376378 177.141427 
L 351.461705 177.141427 
L 351.461705 178.209174 
L 353.547031 178.209174 
L 353.547031 179.276921 
L 355.632358 179.276921 
L 355.632358 180.344668 
L 357.717685 180.344668 
L 357.717685 181.412415 
L 359.803011 181.412415 
L 359.803011 182.480162 
L 361.888338 182.480162 
L 361.888338 183.547909 
L 363.973665 183.547909 
L 363.973665 184.615656 
L 366.058991 184.615656 
L 366.058991 185.683403 
L 368.144318 185.683403 
L 368.144318 186.75115 
L 370.229645 186.75115 
L 370.229645 187.818897 
L 372.314972 187.818897 
L 372.314972 188.886644 
L 374.400298 188.886644 
L 374.400298 189.95439 
L 376.485625 189.95439 
L 376.485625 191.022137 
L 378.570952 191.022137 
L 378.570952 189.95439 
L 380.656278 189.95439 
L 380.656278 191.022137 
L 382.741605 191.022137 
L 382.741605 192.089884 
L 384.826932 192.089884 
L 384.826932 193.157631 
L 386.912259 193.157631 
L 386.912259 194.225378 
L 388.997585 194.225378 
L 388.997585 195.293125 
L 391.082912 195.293125 
L 391.082912 196.360872 
L 393.168239 196.360872 
L 393.168239 197.428619 
L 395.253565 197.428619 
L 395.253565 198.496366 
L 397.338892 198.496366 
L 397.338892 199.564113 
L 399.424219 199.564113 
L 399.424219 200.63186 
L 401.509545 200.63186 
L 401.509545 201.699606 
L 403.594872 201.699606 
L 403.594872 202.767353 
L 405.680199 202.767353 
L 405.680199 203.8351 
L 407.765526 203.8351 
L 407.765526 204.902847 
L 409.850852 204.902847 
L 409.850852 205.970594 
L 411.936179 205.970594 
L 411.936179 207.038341 
L 414.021506 207.038341 
L 414.021506 208.106088 
L 416.106832 208.106088 
L 416.106832 209.173835 
L 418.192159 209.173835 
L 418.192159 210.241582 
L 420.277486 210.241582 
L 420.277486 211.309329 
L 422.362813 211.309329 
L 422.362813 212.377076 
L 424.448139 212.377076 
L 424.448139 213.444823 
L 426.533466 213.444823 
L 426.533466 214.512569 
L 428.618793 214.512569 
L 428.618793 215.580316 
L 430.704119 215.580316 
L 430.704119 216.648063 
L 432.789446 216.648063 
L 432.789446 217.71581 
L 434.874773 217.71581 
L 434.874773 218.783557 
L 436.960099 218.783557 
L 436.960099 219.851304 
L 439.045426 219.851304 
L 439.045426 220.919051 
L 441.130753 220.919051 
L 441.130753 221.986798 
L 443.21608 221.986798 
L 443.21608 223.054545 
L 445.301406 223.054545 
L 445.301406 224.122292 
L 447.386733 224.122292 
L 447.386733 225.190039 
L 449.47206 225.190039 
L 449.47206 226.257785 
L 451.557386 226.257785 
L 451.557386 227.325532 
L 453.642713 227.325532 
L 453.642713 228.393279 
L 455.72804 228.393279 
L 455.72804 229.461026 
L 457.813366 229.461026 
L 457.813366 230.528773 
L 459.898693 230.528773 
L 459.898693 231.59652 
L 461.98402 231.59652 
L 461.98402 232.664267 
L 464.069347 232.664267 
L 464.069347 233.732014 
L 466.154673 233.732014 
L 466.154673 234.799761 
L 468.24 234.799761 
L 468.24 235.867508 
L 470.325327 235.867508 
L 470.325327 236.935255 
L 472.410653 236.935255 
L 472.410653 238.003002 
L 474.49598 238.003002 
L 474.49598 239.070748 
L 476.581307 239.070748 
L 476.581307 240.138495 
L 478.666634 240.138495 
L 478.666634 241.206242 
L 480.75196 241.206242 
L 480.75196 242.273989 
L 482.837287 242.273989 
L 482.837287 243.341736 
L 484.922614 243.341736 
L 484.922614 244.409483 
L 487.00794 244.409483 
L 487.00794 245.47723 
L 489.093267 245.47723 
L 489.093267 246.544977 
L 491.178594 246.544977 
L 491.178594 247.612724 
L 493.26392 247.612724 
L 493.26392 248.680471 
L 495.349247 248.680471 
L 495.349247 249.748218 
L 497.434574 249.748218 
L 497.434574 250.815965 
L 499.519901 250.815965 
L 499.519901 251.883711 
L 501.605227 251.883711 
L 501.605227 252.951458 
L 503.690554 252.951458 
L 503.690554 254.019205 
L 505.775881 254.019205 
L 505.775881 255.086952 
L 507.861207 255.086952 
L 507.861207 256.154699 
L 509.946534 256.154699 
L 509.946534 257.222446 
L 512.031861 257.222446 
L 512.031861 258.290193 
L 514.117188 258.290193 
L 514.117188 259.35794 
L 516.202514 259.35794 
L 516.202514 260.425687 
L 518.287841 260.425687 
L 518.287841 261.493434 
L 520.373168 261.493434 
L 520.373168 262.561181 
L 522.458494 262.561181 
L 522.458494 263.628927 
L 524.543821 263.628927 
L 524.543821 264.696674 
L 526.629148 264.696674 
L 526.629148 265.764421 
L 528.714474 265.764421 
L 528.714474 266.832168 
L 530.799801 266.832168 
L 530.799801 267.899915 
L 532.885128 267.899915 
L 532.885128 268.967662 
L 534.970455 268.967662 
L 534.970455 270.035409 
L 537.055781 270.035409 
L 537.055781 271.103156 
L 539.141108 271.103156 
L 539.141108 272.170903 
L 541.226435 272.170903 
L 541.226435 273.23865 
L 543.311761 273.23865 
L 543.311761 274.306397 
L 545.397088 274.306397 
L 545.397088 275.374144 
L 547.482415 275.374144 
L 547.482415 276.44189 
L 549.567741 276.44189 
L 549.567741 277.509637 
L 551.653068 277.509637 
L 551.653068 278.577384 
L 553.738395 278.577384 
L 553.738395 279.645131 
L 555.823722 279.645131 
L 555.823722 280.712878 
L 557.909048 280.712878 
L 557.909048 281.780625 
L 559.994375 281.780625 
L 559.994375 282.848372 
L 562.079702 282.848372 
L 562.079702 283.916119 
L 564.165028 283.916119 
L 564.165028 284.983866 
L 566.250355 284.983866 
L 566.250355 286.051613 
L 568.335682 286.051613 
L 568.335682 287.11936 
L 570.421009 287.11936 
L 570.421009 288.187106 
L 572.506335 288.187106 
L 572.506335 289.254853 
L 574.591662 289.254853 
L 574.591662 290.3226 
L 576.676989 290.3226 
L 576.676989 291.390347 
L 578.762315 291.390347 
L 578.762315 292.458094 
L 580.847642 292.458094 
L 580.847642 293.525841 
L 582.932969 293.525841 
L 582.932969 294.593588 
L 585.018295 294.593588 
L 585.018295 295.661335 
L 587.103622 295.661335 
L 587.103622 296.729082 
L 589.188949 296.729082 
L 589.188949 297.796829 
L 591.274276 297.796829 
L 591.274276 298.864576 
L 593.359602 298.864576 
L 593.359602 297.796829 
L 595.444929 297.796829 
L 595.444929 296.729082 
L 597.530256 296.729082 
L 597.530256 295.661335 
L 599.615582 295.661335 
L 599.615582 294.593588 
L 601.700909 294.593588 
L 601.700909 293.525841 
L 603.786236 293.525841 
L 603.786236 292.458094 
L 605.871563 292.458094 
L 605.871563 291.390347 
L 607.956889 291.390347 
L 607.956889 290.3226 
L 610.042216 290.3226 
L 610.042216 289.254853 
L 612.127543 289.254853 
L 612.127543 288.187106 
L 614.212869 288.187106 
L 614.212869 287.11936 
L 616.298196 287.11936 
L 616.298196 286.051613 
L 618.383523 286.051613 
L 618.383523 284.983866 
L 620.468849 284.983866 
L 620.468849 283.916119 
L 622.554176 283.916119 
L 622.554176 282.848372 
L 624.639503 282.848372 
L 624.639503 281.780625 
L 626.72483 281.780625 
L 626.72483 280.712878 
L 628.810156 280.712878 
L 628.810156 279.645131 
L 630.895483 279.645131 
L 630.895483 278.577384 
L 632.98081 278.577384 
L 632.98081 277.509637 
L 635.066136 277.509637 
L 635.066136 276.44189 
L 637.151463 276.44189 
L 637.151463 275.374144 
L 639.23679 275.374144 
L 639.23679 274.306397 
L 641.322116 274.306397 
L 641.322116 273.23865 
L 643.407443 273.23865 
L 643.407443 272.170903 
L 645.49277 272.170903 
L 645.49277 271.103156 
L 647.578097 271.103156 
L 647.578097 270.035409 
L 649.663423 270.035409 
L 649.663423 268.967662 
L 651.74875 268.967662 
L 651.74875 267.899915 
L 653.834077 267.899915 
L 653.834077 266.832168 
L 655.919403 266.832168 
L 655.919403 265.764421 
L 658.00473 265.764421 
L 658.00473 264.696674 
L 660.090057 264.696674 
L 660.090057 263.628927 
L 662.175384 263.628927 
L 662.175384 262.561181 
L 664.26071 262.561181 
L 664.26071 261.493434 
L 666.346037 261.493434 
L 666.346037 260.425687 
L 668.431364 260.425687 
L 668.431364 259.35794 
L 670.51669 259.35794 
L 670.51669 258.290193 
L 672.602017 258.290193 
L 672.602017 257.222446 
L 674.687344 257.222446 
L 674.687344 256.154699 
L 676.77267 256.154699 
L 676.77267 255.086952 
L 678.857997 255.086952 
L 678.857997 254.019205 
L 680.943324 254.019205 
L 680.943324 252.951458 
L 683.028651 252.951458 
L 683.028651 251.883711 
L 685.113977 251.883711 
L 685.113977 250.815965 
L 687.199304 250.815965 
L 687.199304 249.748218 
L 689.284631 249.748218 
L 689.284631 248.680471 
L 691.369957 248.680471 
L 691.369957 247.612724 
L 693.455284 247.612724 
L 693.455284 246.544977 
L 695.540611 246.544977 
L 695.540611 245.47723 
L 697.625938 245.47723 
L 697.625938 244.409483 
L 699.711264 244.409483 
L 699.711264 243.341736 
L 701.796591 243.341736 
L 701.796591 242.273989 
L 703.881918 242.273989 
L 703.881918 241.206242 
L 705.967244 241.206242 
L 705.967244 240.138495 
L 708.052571 240.138495 
L 708.052571 239.070748 
L 710.137898 239.070748 
L 710.137898 238.003002 
L 712.223224 238.003002 
L 712.223224 236.935255 
L 714.308551 236.935255 
L 714.308551 235.867508 
L 716.393878 235.867508 
L 716.393878 234.799761 
L 718.479205 234.799761 
L 718.479205 233.732014 
L 720.564531 233.732014 
L 720.564531 232.664267 
L 722.649858 232.664267 
L 722.649858 231.59652 
L 724.735185 231.59652 
L 724.735185 230.528773 
L 726.820511 230.528773 
L 726.820511 229.461026 
L 728.905838 229.461026 
L 728.905838 228.393279 
L 730.991165 228.393279 
L 730.991165 227.325532 
L 733.076491 227.325532 
L 733.076491 226.257785 
L 735.161818 226.257785 
L 735.161818 225.190039 
L 737.247145 225.190039 
L 737.247145 224.122292 
L 739.332472 224.122292 
L 739.332472 223.054545 
L 741.417798 223.054545 
L 741.417798 221.986798 
L 743.503125 221.986798 
L 743.503125 220.919051 
L 745.588452 220.919051 
L 745.588452 219.851304 
L 747.673778 219.851304 
L 747.673778 218.783557 
L 749.759105 218.783557 
L 749.759105 217.71581 
L 751.844432 217.71581 
L 751.844432 216.648063 
L 753.929759 216.648063 
L 753.929759 215.580316 
L 756.015085 215.580316 
L 756.015085 214.512569 
L 758.100412 214.512569 
L 758.100412 213.444823 
L 760.185739 213.444823 
L 760.185739 212.377076 
L 762.271065 212.377076 
L 762.271065 211.309329 
L 764.356392 211.309329 
L 764.356392 210.241582 
L 766.441719 210.241582 
L 766.441719 209.173835 
L 768.527045 209.173835 
L 768.527045 208.106088 
L 770.612372 208.106088 
L 770.612372 207.038341 
L 772.697699 207.038341 
L 772.697699 205.970594 
L 774.783026 205.970594 
L 774.783026 204.902847 
L 776.868352 204.902847 
L 776.868352 203.8351 
L 778.953679 203.8351 
L 778.953679 202.767353 
L 781.039006 202.767353 
L 781.039006 201.699606 
L 783.124332 201.699606 
L 783.124332 200.63186 
L 785.209659 200.63186 
L 785.209659 199.564113 
L 787.294986 199.564113 
L 787.294986 198.496366 
L 789.380313 198.496366 
L 789.380313 197.428619 
L 791.465639 197.428619 
L 791.465639 196.360872 
L 793.550966 196.360872 
L 793.550966 195.293125 
L 795.636293 195.293125 
L 795.636293 194.225378 
L 797.721619 194.225378 
L 797.721619 193.157631 
L 799.806946 193.157631 
L 799.806946 192.089884 
L 801.892273 192.089884 
L 801.892273 191.022137 
L 803.977599 191.022137 
L 803.977599 189.95439 
L 806.062926 189.95439 
L 806.062926 188.886644 
L 808.148253 188.886644 
L 808.148253 187.818897 
L 810.23358 187.818897 
L 810.23358 186.75115 
L 812.318906 186.75115 
L 812.318906 185.683403 
L 814.404233 185.683403 
L 814.404233 184.615656 
L 816.48956 184.615656 
L 816.48956 183.547909 
L 818.574886 183.547909 
L 818.574886 182.480162 
L 820.660213 182.480162 
L 820.660213 181.412415 
L 822.74554 181.412415 
L 822.74554 180.344668 
L 824.830866 180.344668 
L 824.830866 179.276921 
L 826.916193 179.276921 
L 826.916193 178.209174 
L 829.00152 178.209174 
L 829.00152 177.141427 
L 831.086847 177.141427 
L 831.086847 176.073681 
L 833.172173 176.073681 
L 833.172173 175.005934 
L 835.2575 175.005934 
L 835.2575 173.938187 
L 837.342827 173.938187 
L 837.342827 172.87044 
L 839.428153 172.87044 
L 839.428153 171.802693 
L 841.51348 171.802693 
L 841.51348 170.734946 
L 843.598807 170.734946 
L 843.598807 169.667199 
L 845.684134 169.667199 
L 845.684134 168.599452 
L 847.76946 168.599452 
L 847.76946 167.531705 
L 849.854787 167.531705 
L 849.854787 166.463958 
L 851.940114 166.463958 
L 851.940114 165.396211 
L 854.02544 165.396211 
L 854.02544 164.328465 
L 856.110767 164.328465 
L 856.110767 163.260718 
L 858.196094 163.260718 
L 858.196094 162.192971 
L 860.28142 162.192971 
L 860.28142 161.125224 
L 862.366747 161.125224 
L 862.366747 160.057477 
L 864.452074 160.057477 
L 864.452074 158.98973 
L 866.537401 158.98973 
L 866.537401 157.921983 
L 868.622727 157.921983 
L 868.622727 156.854236 
L 870.708054 156.854236 
L 870.708054 155.786489 
L 872.793381 155.786489 
L 872.793381 154.718742 
L 874.878707 154.718742 
L 874.878707 153.650995 
L 876.964034 153.650995 
L 876.964034 152.583248 
L 879.049361 152.583248 
L 879.049361 151.515502 
L 881.134688 151.515502 
L 881.134688 150.447755 
L 883.220014 150.447755 
L 883.220014 149.380008 
L 885.305341 149.380008 
L 885.305341 148.312261 
L 887.390668 148.312261 
L 887.390668 147.244514 
L 889.475994 147.244514 
L 889.475994 146.176767 
L 891.561321 146.176767 
L 891.561321 145.10902 
L 893.646648 145.10902 
L 893.646648 144.041273 
L 895.731974 144.041273 
L 895.731974 142.973526 
L 897.817301 142.973526 
L 897.817301 141.905779 
L 899.902628 141.905779 
L 899.902628 140.838032 
L 901.987955 140.838032 
L 901.987955 139.770285 
L 904.073281 139.770285 
L 904.073281 138.702539 
L 906.158608 138.702539 
L 906.158608 137.634792 
L 908.243935 137.634792 
L 908.243935 136.567045 
L 910.329261 136.567045 
L 910.329261 135.499298 
L 912.414588 135.499298 
L 912.414588 134.431551 
L 914.499915 134.431551 
L 914.499915 133.363804 
L 916.585241 133.363804 
L 916.585241 132.296057 
L 918.670568 132.296057 
L 918.670568 131.22831 
L 920.755895 131.22831 
L 920.755895 130.160563 
L 922.841222 130.160563 
L 922.841222 129.092816 
L 924.926548 129.092816 
L 924.926548 128.025069 
L 927.011875 128.025069 
L 927.011875 126.957323 
L 929.097202 126.957323 
L 929.097202 125.889576 
L 931.182528 125.889576 
L 931.182528 125.889576 
" style="fill:none;stroke:#d62728;stroke-linecap:square;stroke-width:1.5;"/>
   </g>
   <g id="patch_7">
    <path d="M 55.345313 310.609792 
L 55.345313 22.318125 
" style="fill:none;stroke:#000000;stroke-linecap:square;stroke-linejoin:miter;stroke-width:0.8;"/>
   </g>
   <g id="patch_8">
    <path d="M 972.889063 310.609792 
L 972.889063 22.318125 
" style="fill:none;stroke:#000000;stroke-linecap:square;stroke-linejoin:miter;stroke-width:0.8;"/>
   </g>
   <g id="patch_9">
    <path d="M 55.345313 310.609792 
L 972.889063 310.609792 
" style="fill:none;stroke:#000000;stroke-linecap:square;stroke-linejoin:miter;stroke-width:0.8;"/>
   </g>
   <g id="patch_10">
    <path d="M 55.345313 22.318125 
L 972.889063 22.318125 
" style="fill:none;stroke:#000000;stroke-linecap:square;stroke-linejoin:miter;stroke-width:0.8;"/>
   </g>
   <g id="legend_1">
    <g id="patch_11">
     <path d="M 1020.76625 54.674375 
L 1096.29125 54.674375 
Q 1098.29125 54.674375 1098.29125 52.674375 
L 1098.29125 24.318125 
Q 1098.29125 22.318125 1096.29125 22.318125 
L 1020.76625 22.318125 
Q 1018.76625 22.318125 1018.76625 24.318125 
L 1018.76625 52.674375 
Q 1018.76625 54.674375 1020.76625 54.674375 
z
" style="fill:#ffffff;opacity:0.8;stroke:#cccccc;stroke-linejoin:miter;"/>
    </g>
    <g id="line2d_44">
     <path d="M 1022.76625 30.416562 
L 1042.76625 30.416562 
" style="fill:none;stroke:#1f77b4;stroke-linecap:square;stroke-width:1.5;"/>
    </g>
    <g id="line2d_45"/>
    <g id="text_31">
     <!-- Error -->
     <g transform="translate(1050.76625 33.916562)scale(0.1 -0.1)">
      <use xlink:href="#DejaVuSans-69"/>
      <use x="63.183594" xlink:href="#DejaVuSans-114"/>
      <use x="102.546875" xlink:href="#DejaVuSans-114"/>
      <use x="141.410156" xlink:href="#DejaVuSans-111"/>
      <use x="202.591797" xlink:href="#DejaVuSans-114"/>
     </g>
    </g>
    <g id="line2d_46">
     <path d="M 1022.76625 45.094688 
L 1042.76625 45.094688 
" style="fill:none;stroke:#d62728;stroke-linecap:square;stroke-width:1.5;"/>
    </g>
    <g id="line2d_47"/>
    <g id="text_32">
     <!-- Intensity -->
     <g transform="translate(1050.76625 48.594688)scale(0.1 -0.1)">
      <use xlink:href="#DejaVuSans-73"/>
      <use x="29.492188" xlink:href="#DejaVuSans-110"/>
      <use x="92.871094" xlink:href="#DejaVuSans-116"/>
      <use x="132.080078" xlink:href="#DejaVuSans-101"/>
      <use x="193.603516" xlink:href="#DejaVuSans-110"/>
      <use x="256.982422" xlink:href="#DejaVuSans-115"/>
      <use x="309.082031" xlink:href="#DejaVuSans-105"/>
      <use x="336.865234" xlink:href="#DejaVuSans-116"/>
      <use x="376.074219" xlink:href="#DejaVuSans-121"/>
     </g>
    </g>
   </g>
  </g>
 </g>
 <defs>
  <clipPath id="p452b5ac35a">
   <rect height="288.291667" width="917.54375" x="55.345313" y="22.318125"/>
  </clipPath>
 </defs>
</svg>
